<?xml version="1.0" standalone="no"?>
<!DOCTYPE svg PUBLIC "-//W3C//DTD SVG 1.1//EN" "http://www.w3.org/Graphics/SVG/1.1/DTD/svg11.dtd" >
<svg xmlns="http://www.w3.org/2000/svg">
<metadata>Generated by IcoMoon</metadata>
<defs>
<font id="icomoon" horiz-adv-x="1024">
<font-face units-per-em="1024" ascent="960" descent="-64" />
<missing-glyph horiz-adv-x="1024" />
<glyph unicode="&#x20;" d="" horiz-adv-x="512" />
<glyph unicode="&#xe600;" d="M480 464c0 131.2 108.8 240 240 240 16 0 32 0 48-3.2 0 0 0 147.2 0 147.2 0 25.6-22.4 48-48 48-3.2 0-540.8 0-544 0-25.6 0-48-22.4-48-48 0-3.2 0-732.8 0-736 0-25.6 22.4-48 48-48 3.2 0 246.4 0 246.4 0l96 268.8c-25.6 38.4-38.4 83.2-38.4 131.2zM416 384h-192v32h192v-32zM416 480h-192v32h192v-32zM416 576h-192v32h192v-32zM416 672h-192v32h192v-32zM544 464c0-96 80-176 176-176s176 80 176 176-80 176-176 176c-99.2 0-176-80-176-176zM803.2 464c0-44.8-38.4-83.2-83.2-83.2s-83.2 38.4-83.2 83.2c0 44.8 38.4 83.2 83.2 83.2s83.2-35.2 83.2-83.2zM704 224c0 0 12.8 0 12.8 0-54.4 0-105.6 25.6-144 54.4l-22.4-57.6-54.4-150.4c-3.2-3.2 0-6.4 3.2-6.4 0 0 3.2 0 3.2 0l83.2 35.2c0 0 3.2 0 3.2 0 3.2 0 9.6-3.2 9.6-6.4l32-83.2c0-3.2 3.2-3.2 3.2-3.2s3.2 0 3.2 3.2l80 214.4zM736 224c0 0-19.2 0-19.2 0 54.4 0 105.6 25.6 144 54.4l22.4-57.6 54.4-150.4c3.2-3.2 0-6.4-3.2-6.4 0 0-3.2 0-3.2 0l-83.2 35.2c0 0-3.2 0-3.2 0-3.2 0-9.6-3.2-9.6-6.4l-32-83.2c0-3.2-3.2-3.2-3.2-3.2s-3.2 0-3.2 3.2l-73.6 214.4z" />
<glyph unicode="&#xe601;" d="M796.8 246.4l182.4 201.6h-121.6c-6.4 224-182.4 396.8-403.2 396.8s-400-176-400-400c0-224 179.2-403.2 403.2-403.2 92.8 0 179.2 32 246.4 86.4l-70.4 73.6c-51.2-38.4-112-57.6-179.2-57.6-166.4 0-300.8 134.4-300.8 304s134.4 297.6 300.8 297.6c163.2 0 297.6-137.6 300.8-297.6h-140.8l182.4-201.6zM432 656c-25.6 0-48-22.4-48-48v-160c0-12.8 3.2-22.4 12.8-32l96-108.8c9.6-9.6 22.4-16 35.2-16s22.4 3.2 32 12.8c19.2 19.2 22.4 48 3.2 67.2l-83.2 96v140.8c0 25.6-22.4 48-48 48z" />
<glyph unicode="&#xe602;" d="M374.4 787.2c-22.4-9.6-38.4-19.2-35.2-19.2 0 0 0 0-3.2 0 0 0-3.2 0-3.2-3.2-112-102.4-28.8-294.4 9.6-374.4 9.6-19.2 19.2-16 28.8 3.2 6.4 12.8 12.8 22.4 22.4 32 16 16 51.2 32 73.6 28.8 6.4 0 12.8-3.2 19.2-3.2 22.4-6.4 41.6 6.4 48 25.6 16 44.8 44.8 57.6 44.8 57.6 22.4 12.8 44.8 12.8 60.8 12.8 22.4-3.2 32 3.2 22.4 22.4-70.4 131.2-204.8 185.6-204.8 185.6-22.4 9.6-44.8 16-67.2 16-22.4 3.2-22.4 3.2 0 6.4 153.6 12.8 268.8-121.6 313.6-185.6 12.8-19.2 25.6-16 35.2 6.4 32 76.8 96 83.2 140.8 80 28.8-3.2 48-6.4 48-6.4s0 3.2 0 3.2c-176 259.2-454.4 160-553.6 112zM294.4 736c-86.4-67.2-300.8-275.2-144-544 0 0 3.2-3.2 3.2-3.2 3.2 0 6.4 19.2 12.8 38.4 16 41.6 51.2 96 131.2 92.8 22.4 0 32 9.6 19.2 28.8-38.4 73.6-112 240-16 377.6 12.8 19.2 9.6 22.4-6.4 9.6zM307.2 800c19.2 12.8 25.6 35.2 16 51.2s-19.2 38.4-32 44.8c-9.6 0-19.2 0-25.6-3.2v0c-9.6-6.4-16-12.8-16-22.4-6.4-12.8 6.4-38.4 12.8-57.6s25.6-22.4 44.8-12.8zM832 86.4c6.4-12.8-32-38.4-51.2-6.4-12.8 19.2-192 332.8-192 332.8-9.6 16-28.8 19.2-41.6 12.8v0c-16-9.6-19.2-28.8-12.8-41.6l204.8-355.2c3.2-9.6 16-19.2 32-25.6 22.4-6.4 48 19.2 64 32l28.8 19.2c12.8 9.6 9.6 83.2-28.8 70.4-16-9.6-9.6-25.6-3.2-38.4z" />
<glyph unicode="&#xe603;" d="M467.2 534.4l-358.4-358.4c-12.8-12.8-19.2-28.8-19.2-48s6.4-35.2 19.2-48l57.6-57.6c12.8-12.8 32-19.2 51.2-19.2s35.2 6.4 48 19.2l358.4 358.4c-35.2 12.8-67.2 35.2-96 64-25.6 22.4-44.8 54.4-60.8 89.6zM214.4 64c-28.8 0-54.4 25.6-54.4 54.4s25.6 54.4 54.4 54.4 54.4-25.6 54.4-54.4-25.6-54.4-54.4-54.4zM979.2 643.2c-3.2 3.2-6.4 6.4-12.8 6.4-3.2 0-16-6.4-38.4-19.2s-48-28.8-73.6-44.8c-25.6-16-44.8-25.6-44.8-28.8l-105.6 57.6v121.6l163.2 92.8c6.4 3.2 9.6 9.6 9.6 16s-3.2 12.8-9.6 16c-16 9.6-35.2 19.2-57.6 25.6-25.6 6.4-48 9.6-67.2 9.6-67.2 0-124.8-22.4-172.8-70.4s-70.4-105.6-70.4-172.8c0-67.2 22.4-124.8 70.4-172.8s105.6-70.4 172.8-70.4c51.2 0 99.2 16 140.8 44.8s73.6 70.4 89.6 118.4c9.6 25.6 12.8 44.8 12.8 57.6 0 3.2-3.2 9.6-6.4 12.8z" />
<glyph unicode="&#xe604;" d="M745.6 700.8l-326.4-323.2-137.6 137.6-92.8-92.8 137.6-137.6 25.6-22.4 67.2-70.4 419.2 416z" />
<glyph unicode="&#xe605;" d="M921.6 342.4c0-38.4-35.2-64-76.8-64v0c28.8-6.4 64-41.6 64-76.8 0-38.4-35.2-60.8-73.6-60.8h-32c25.6-6.4 60.8-41.6 60.8-76.8 0-38.4-35.2-64-76.8-64h-332.8c-108.8 0-198.4 89.6-198.4 198.4 0 0 0 211.2 0 211.2 0 76.8 41.6 160 112 185.6 51.2 35.2 160 96 182.4 211.2 0 44.8 0 86.4 0 86.4s147.2 16 147.2-121.6c0-163.2-102.4-192-22.4-195.2h121.6c44.8 0 80-41.6 80-86.4 0-38.4-35.2-60.8-64-70.4h32c38.4 3.2 76.8-38.4 76.8-76.8zM224 128c0-35.2-28.8-64-64-64h-32c-35.2 0-64 28.8-64 64v352c0 35.2 28.8 64 64 64h32c35.2 0 64-28.8 64-64v-352z" />
<glyph unicode="&#xe606;" d="M102.4 553.6c0 38.4 35.2 64 76.8 64v0c-28.8 6.4-64 41.6-64 76.8 0 38.4 35.2 60.8 73.6 60.8h32c-22.4 6.4-57.6 41.6-57.6 76.8 0 38.4 35.2 64 76.8 64h332.8c108.8 0 195.2-89.6 195.2-198.4 0 0 0-211.2 0-211.2 0-76.8-41.6-160-112-185.6-51.2-35.2-160-96-182.4-211.2 0-44.8 0-86.4 0-86.4s-147.2-16-147.2 121.6c0 163.2 102.4 192 22.4 195.2h-121.6c-44.8 0-80 41.6-80 86.4 0 38.4 35.2 60.8 64 70.4h-32c-38.4-3.2-76.8 35.2-76.8 76.8zM960 416c0-35.2-28.8-64-64-64h-32c-35.2 0-64 28.8-64 64v352c0 35.2 28.8 64 64 64h32c35.2 0 64-28.8 64-64v-352z" />
<glyph unicode="&#xe607;" d="M640 288v-96h-384v576h384v-32h64v32c0 70.4-57.6 128-128 128h-256c-73.6 0-128-57.6-128-128v-640c0-70.4 54.4-128 128-128h256c70.4 0 128 57.6 128 128v160h-64zM428.8 35.2c-32 0-57.6 25.6-57.6 57.6s25.6 57.6 57.6 57.6 57.6-25.6 57.6-57.6c0-32-25.6-57.6-57.6-57.6zM412.8 352h44.8c0 0 0 0 0 0l-19.2-70.4c-3.2-9.6 0-16 3.2-16s6.4 3.2 9.6 6.4l96 80h252.8c16 0 28.8 12.8 28.8 28.8v262.4c3.2 16-9.6 28.8-28.8 28.8h-387.2c-16 0-28.8-12.8-28.8-28.8v-262.4c0-16 12.8-28.8 28.8-28.8z" />
<glyph unicode="&#xe608;" d="M160.472 675.886l226.272-226.272-67.882-67.882-226.272 226.272 67.882 67.882zM319.998 835.414l67.882-67.882-226.272-226.272-67.882 67.882 226.272 226.272zM861.254 220.11l-226.272 226.272 67.882 67.882 226.272-226.272-67.882-67.882zM703.998 62.856l-67.882 67.882 226.272 226.272 67.882-67.882-226.272-226.272zM224 672h608v-128h-608v128zM192 352h608v-128h-608v128z" />
<glyph unicode="&#xe609;" d="M390.4 582.4c0 0-144-16-243.2-25.6-9.6 0-16-6.4-19.2-16s0-19.2 6.4-22.4c73.6-67.2 179.2-163.2 179.2-163.2s-28.8-144-48-240c-3.2-9.6 0-19.2 9.6-22.4 6.4-6.4 16-6.4 25.6 0 86.4 48 211.2 121.6 211.2 121.6s128-73.6 211.2-121.6c6.4-3.2 16-3.2 25.6 0 6.4 6.4 9.6 16 9.6 22.4-19.2 96-48 240-48 240s108.8 99.2 179.2 163.2c6.4 6.4 9.6 16 6.4 25.6s-9.6 16-19.2 16c-96 9.6-243.2 25.6-243.2 25.6s-60.8 134.4-99.2 220.8c-3.2 6.4-12.8 12.8-22.4 12.8s-16-6.4-22.4-12.8c-38.4-92.8-99.2-224-99.2-224z" />
<glyph unicode="&#xe60a;" d="M729.6 553.6l140.8-51.2-118.4-320c-9.6-28.8-70.4-124.8-112-144l-9.6-28.8c-3.2-6.4-9.6-12.8-16-12.8-3.2 0-3.2 0-6.4 0-9.6 3.2-12.8 12.8-9.6 22.4l9.6 25.6c-22.4 41.6-6.4 160 3.2 185.6l118.4 323.2zM934.4 889.6c-38.4 12.8-83.2-16-96-51.2l-86.4-230.4 140.8-51.2 86.4 230.4c9.6 28.8-6.4 89.6-44.8 102.4zM659.2 569.6c3.2 0 9.6-3.2 12.8-3.2 12.8 0 25.6 9.6 32 22.4l89.6 243.2c6.4 19.2-3.2 38.4-19.2 44.8-19.2 6.4-38.4-3.2-44.8-19.2l-89.6-243.2c-9.6-16 0-38.4 19.2-44.8zM534.4 112c-9.6 9.6-19.2 19.2-38.4 28.8-16 6.4-28.8 6.4-41.6 6.4 0 0-3.2 0-3.2 0-6.4 19.2-19.2 32-41.6 35.2-28.8 6.4-48-6.4-64-16 0 6.4 3.2 16 6.4 22.4 6.4 22.4 9.6 41.6 6.4 64-3.2 16-16 28.8-32 28.8-41.6 3.2-76.8-19.2-108.8-41.6s-54.4-35.2-73.6-28.8c-25.6 9.6-28.8 76.8-16 137.6 9.6 54.4 32 156.8 83.2 201.6 16 16 41.6 32 64 25.6 25.6-9.6 44.8-48 48-96 3.2-19.2 19.2-35.2 38.4-32s35.2 19.2 32 38.4c-6.4 76.8-44.8 137.6-96 156.8-32 12.8-80 16-137.6-35.2-64-57.6-89.6-156.8-105.6-243.2-9.6-44.8-28.8-188.8 64-220.8 57.6-19.2 102.4 9.6 137.6 35.2 6.4 3.2 12.8 9.6 19.2 12.8-6.4-25.6-9.6-54.4 6.4-80 22.4-35.2 57.6-38.4 99.2-12.8 3.2 0 3.2 3.2 6.4 3.2 3.2-9.6 9.6-16 22.4-22.4 16-6.4 32-6.4 41.6-9.6 3.2 0 12.8 0 12.8 0 6.4-3.2 9.6-6.4 19.2-12.8 6.4-6.4 12.8-12.8 19.2-16 6.4-6.4 12.8-6.4 22.4-6.4s22.4 6.4 28.8 16c12.8 16 9.6 38.4-6.4 51.2-3.2 0-9.6 6.4-12.8 9.6z" />
<glyph unicode="&#xe60b;" d="M953.6 800c9.6 16 16 38.4 9.6 60.8-3.2 12.8-12.8 22.4-25.6 28.8-6.4 3.2-16 3.2-22.4 3.2-35.2 0-67.2-28.8-92.8-51.2-6.4-3.2-9.6-9.6-12.8-12.8-44.8-35.2-99.2-83.2-140.8-121.6-108.8 28.8-371.2 92.8-480 92.8-28.8 3.2-44.8 0-54.4-9.6-16-9.6-54.4-38.4-54.4-64 0-3.2 3.2-6.4 6.4-9.6 12.8-9.6 281.6-172.8 380.8-224-57.6-60.8-115.2-124.8-163.2-176-38.4 16-108.8 41.6-147.2 41.6-12.8 0-22.4-3.2-25.6-6.4l-57.6-51.2c-3.2-3.2-3.2-6.4-3.2-9.6s3.2-6.4 6.4-9.6l131.2-67.2c-12.8-16-16-32-6.4-48 9.6-19.2 32-35.2 54.4-35.2 12.8 0 22.4 3.2 32 12.8l70.4-134.4c3.2-3.2 6.4-6.4 9.6-6.4 0 0 0 0 0 0 3.2 0 6.4 0 9.6 3.2l48 54.4c22.4 22.4-12.8 121.6-35.2 179.2l188.8 176c41.6-83.2 224-380.8 233.6-393.6 3.2-3.2 6.4-6.4 9.6-6.4 0 0 0 0 0 0 25.6 0 54.4 41.6 60.8 54.4 41.6 48-44.8 400-86.4 550.4 67.2 57.6 118.4 121.6 156.8 179.2z" />
<glyph unicode="&#xe60c;" d="M144 371.2c0-204.8 166.4-371.2 371.2-371.2s371.2 166.4 371.2 371.2-166.4 368-371.2 368h-73.6l67.2 67.2-86.4 89.6-217.6-217.6 217.6-217.6 86.4 86.4-67.2 67.2h73.6c137.6 0 246.4-112 246.4-246.4s-112-246.4-246.4-246.4-246.4 112-246.4 246.4c0 0-6.4 44.8-60.8 44.8s-64-41.6-64-41.6z" />
<glyph unicode="&#xe60d;" d="M739.2 739.2c-6.4 0-12.8 0-19.2 3.2 0-3.2 0-3.2 0-6.4 0-12.8 3.2-38.4 9.6-64 12.8-12.8 22.4-32 22.4-54.4 0-41.6-32-73.6-73.6-73.6s-73.6 32-73.6 73.6c0 9.6 3.2 22.4 6.4 32-6.4 28.8-9.6 64-9.6 86.4 0 6.4 0 9.6 0 16-70.4 3.2-134.4 3.2-140.8-3.2l-384-387.2c-22.4-22.4-22.4-60.8 0-86.4l259.2-259.2c22.4-22.4 60.8-22.4 86.4 0l387.2 387.2c16 16 3.2 188.8-9.6 278.4-9.6 54.4-9.6 51.2-60.8 57.6zM569.6 419.2c3.2-16 6.4-32 0-44.8h-54.4c0 16 0 28.8-3.2 38.4s-9.6 19.2-16 25.6c-9.6 9.6-19.2 16-28.8 16s-19.2 0-25.6-9.6c-3.2-3.2-6.4-6.4-6.4-12.8 0-3.2 0-9.6 0-16s3.2-9.6 3.2-16c3.2-6.4 3.2-9.6 6.4-12.8 6.4-12.8 9.6-25.6 16-38.4s9.6-25.6 9.6-38.4c3.2-12.8 0-25.6-3.2-38.4s-12.8-25.6-22.4-38.4c-12.8-12.8-28.8-22.4-44.8-25.6s-28.8-3.2-41.6 0c-12.8 3.2-25.6 9.6-35.2 19.2l-44.8-35.2-28.8 28.8 41.6 41.6c-12.8 16-22.4 32-25.6 48-6.4 16-6.4 32-6.4 48l57.6 6.4c0-16 0-28.8 3.2-41.6s9.6-25.6 19.2-35.2c9.6-9.6 19.2-16 28.8-16 9.6-3.2 19.2 0 25.6 9.6 9.6 9.6 12.8 16 9.6 25.6 0 9.6-3.2 22.4-9.6 35.2s-9.6 25.6-16 38.4c-6.4 12.8-9.6 25.6-9.6 35.2-3.2 12.8 0 22.4 3.2 35.2s9.6 22.4 22.4 35.2c12.8 12.8 28.8 22.4 44.8 22.4 16 3.2 28.8 0 41.6-3.2 12.8-6.4 22.4-9.6 32-16l48 48 28.8-28.8-48-48c16-12.8 22.4-25.6 28.8-41.6zM793.6 896c-86.4 0-160-70.4-160-160 0-35.2 16-112 19.2-121.6 3.2-12.8 16-22.4 32-19.2 12.8 3.2 22.4 16 19.2 32-3.2 22.4-16 86.4-16 112 0 57.6 48 105.6 105.6 105.6 60.8 0 105.6-51.2 105.6-118.4 0-121.6-54.4-211.2-54.4-211.2-6.4-12.8-3.2-28.8 9.6-35.2 3.2-3.2 9.6-3.2 12.8-3.2 9.6 0 19.2 3.2 22.4 12.8 3.2 3.2 60.8 102.4 60.8 240 3.2 92.8-67.2 166.4-156.8 166.4z" />
<glyph unicode="&#xe60e;" d="M928 704c0 35.2-28.8 64-64 64h-704c-35.2 0-64-28.8-64-64v-512c0-35.2 28.8-64 64-64h704c35.2 0 64 28.8 64 64v512zM800 233.6c-19.2 0-35.2 9.6-48 22.4-12.8-12.8-28.8-22.4-48-22.4-35.2 0-64 28.8-64 64s28.8 64 64 64c19.2 0 35.2-9.6 48-22.4 12.8 12.8 28.8 22.4 48 22.4 35.2 0 64-28.8 64-64s-28.8-64-64-64zM896 448h-768v160h768v-160z" />
<glyph unicode="&#xe60f;" d="M777.6 454.4c0-73.6-32-144-86.4-195.2-9.6-9.6-25.6-16-38.4-16-16 0-32 6.4-41.6 19.2-22.4 22.4-19.2 57.6 3.2 80 32 28.8 48 70.4 48 112s-19.2 83.2-48 112c-22.4 22.4-25.6 57.6-3.2 80s57.6 25.6 80 3.2c54.4-51.2 86.4-121.6 86.4-195.2zM835.2 771.2c-22.4 22.4-57.6 22.4-80 0s-22.4-57.6 0-80c64-64 99.2-147.2 99.2-236.8s-35.2-172.8-99.2-236.8c-22.4-22.4-22.4-57.6 0-80 9.6-9.6 25.6-16 38.4-16 16 0 28.8 6.4 38.4 16 83.2 83.2 131.2 198.4 131.2 316.8 0 121.6-44.8 233.6-128 316.8zM515.2 521.6c-38.4 0-67.2-28.8-67.2-67.2s28.8-67.2 67.2-67.2 67.2 32 67.2 67.2c0 38.4-28.8 67.2-67.2 67.2zM419.2 646.4c-22.4 22.4-57.6 25.6-80 3.2-54.4-51.2-86.4-121.6-86.4-195.2s32-144 86.4-195.2c9.6-9.6 25.6-16 38.4-16 16 0 32 6.4 41.6 19.2 22.4 22.4 19.2 57.6-3.2 80-32 28.8-48 67.2-48 112 0 41.6 19.2 83.2 48 112 22.4 19.2 22.4 54.4 3.2 80zM179.2 454.4c0 89.6 35.2 172.8 99.2 236.8 22.4 22.4 22.4 57.6 0 80s-57.6 22.4-80 0c-83.2-83.2-131.2-198.4-131.2-316.8s44.8-233.6 131.2-316.8c9.6-9.6 25.6-16 38.4-16s28.8 6.4 38.4 16c22.4 22.4 22.4 57.6 0 80-60.8 64-96 147.2-96 236.8z" />
<glyph unicode="&#xe610;" d="M608 224v-32h-384v576h384v-32h64v32c0 70.4-57.6 128-128 128h-256c-70.4 0-128-57.6-128-128v-640c0-70.4 57.6-128 128-128h256c70.4 0 128 57.6 128 128v96h-64zM412.8 35.2c-32 0-57.6 25.6-57.6 57.6s25.6 57.6 57.6 57.6 57.6-25.6 57.6-57.6c0-32-25.6-57.6-57.6-57.6zM825.6 355.2c0 3.2 0 3.2-3.2 6.4-12.8 16-22.4 28.8-32 41.6 6.4 9.6 9.6 19.2 9.6 25.6l54.4 9.6c3.2 0 3.2 0 6.4 3.2s3.2 3.2 3.2 6.4v64c0 3.2 0 6.4-3.2 6.4-3.2 3.2-3.2 3.2-6.4 3.2l-54.4 9.6c-3.2 6.4-6.4 16-12.8 28.8 3.2 6.4 9.6 12.8 16 22.4s12.8 16 16 19.2c3.2 3.2 3.2 3.2 3.2 6.4 0 6.4-16 25.6-51.2 54.4-3.2 3.2-3.2 3.2-6.4 3.2s-6.4 0-6.4-3.2l-41.6-32c-9.6 6.4-19.2 9.6-25.6 9.6l-9.6 54.4c0 3.2 0 3.2-3.2 6.4 0 3.2-3.2 3.2-6.4 3.2h-64c-6.4 0-9.6-3.2-9.6-9.6-3.2-9.6-6.4-28.8-9.6-54.4-9.6-3.2-19.2-6.4-25.6-9.6l-41.6 32c-3.2 3.2-3.2 3.2-6.4 3.2s-12.8-6.4-28.8-19.2c-12.8-12.8-22.4-25.6-28.8-32-3.2-3.2-3.2-3.2-3.2-6.4s0-3.2 3.2-6.4c12.8-16 22.4-28.8 32-41.6-6.4-9.6-9.6-19.2-9.6-25.6l-54.4-9.6c-3.2 0-3.2 0-6.4-3.2s-3.2-3.2-3.2-6.4v-64c0-3.2 0-6.4 3.2-6.4 3.2-3.2 3.2-3.2 6.4-3.2l54.4-9.6c3.2-9.6 6.4-19.2 12.8-28.8-3.2-6.4-9.6-12.8-16-22.4s-12.8-16-12.8-19.2c-3.2-3.2-3.2-3.2-3.2-6.4 0-6.4 16-25.6 51.2-54.4 3.2-3.2 3.2-3.2 6.4-3.2s6.4 0 6.4 3.2l41.6 32c9.6-6.4 19.2-9.6 25.6-9.6l9.6-54.4c0-3.2 0-3.2 3.2-6.4s3.2-3.2 6.4-3.2h64c6.4 0 9.6 3.2 9.6 9.6 3.2 9.6 6.4 28.8 9.6 54.4 9.6 3.2 19.2 6.4 25.6 9.6l41.6-32c3.2-3.2 3.2-3.2 6.4-3.2s12.8 6.4 28.8 19.2c12.8 12.8 22.4 25.6 28.8 32-3.2 3.2 0 3.2 0 6.4zM704 419.2c-16-16-38.4-25.6-64-25.6s-44.8 9.6-64 25.6c-16 16-25.6 38.4-25.6 64s9.6 44.8 25.6 64c16 16 38.4 25.6 64 25.6s44.8-9.6 64-25.6c16-16 25.6-38.4 25.6-64s-9.6-48-25.6-64zM256 672h96v-96h-96v96zM256 544h96v-96h-96v96zM256 416h96v-96h-96v96z" />
<glyph unicode="&#xe611;" d="M508.8 896c-185.6 0-336-150.4-336-336 0-70.4 22.4-137.6 64-195.2l9.6-12.8 240-339.2c6.4-6.4 12.8-9.6 22.4-9.6s16 3.2 22.4 9.6l236.8 336 12.8 16c41.6 57.6 64 124.8 64 195.2 0 185.6-150.4 336-336 336zM508.8 448c-60.8 0-112 51.2-112 112s51.2 112 112 112 112-51.2 112-112-48-112-112-112z" />
<glyph unicode="&#xe612;" d="M947.2 448c0 6.4-3.2 12.8-6.4 16 38.4 89.6 32 192-19.2 275.2-57.6 96-160 153.6-265.6 153.6-41.6 0-80-9.6-121.6-25.6-3.2 3.2-9.6 6.4-16 6.4s-12.8-3.2-16-6.4c-41.6 19.2-83.2 28.8-121.6 28.8-108.8 0-211.2-60.8-268.8-156.8-51.2-86.4-57.6-185.6-19.2-275.2-3.2-3.2-6.4-9.6-6.4-16s3.2-12.8 6.4-16c-38.4-89.6-32-192 19.2-275.2 57.6-96 160-153.6 265.6-153.6 41.6 0 80 9.6 121.6 25.6 3.2-3.2 9.6-6.4 16-6.4s12.8 3.2 16 6.4c38.4-16 80-25.6 121.6-25.6 105.6 0 208 60.8 265.6 153.6 51.2 86.4 57.6 185.6 19.2 275.2 6.4 3.2 9.6 9.6 9.6 16zM652.8 876.8c99.2 0 195.2-54.4 249.6-144 48-80 54.4-172.8 19.2-256-3.2 44.8-12.8 86.4-28.8 128-19.2 51.2-51.2 96-89.6 134.4s-83.2 67.2-134.4 89.6c-41.6 16-83.2 25.6-128 28.8 38.4 9.6 76.8 19.2 112 19.2zM825.6 681.6l-86.4-86.4c-9.6 16-22.4 28.8-35.2 41.6s-25.6 22.4-41.6 32l86.4 86.4c12.8-9.6 28.8-22.4 38.4-35.2 16-9.6 28.8-25.6 38.4-38.4zM131.2 729.6c54.4 89.6 150.4 144 249.6 144 38.4 0 76.8-6.4 112-22.4-44.8-3.2-86.4-12.8-128-28.8-51.2-19.2-96-51.2-134.4-89.6s-70.4-83.2-89.6-134.4c-16-41.6-25.6-83.2-28.8-128-38.4 86.4-32 179.2 19.2 259.2zM368 672c-16-9.6-28.8-22.4-41.6-32-12.8-12.8-22.4-25.6-32-41.6l-86.4 83.2c9.6 12.8 22.4 28.8 35.2 38.4 12.8 12.8 25.6 25.6 38.4 35.2l86.4-83.2zM294.4 297.6c9.6-16 22.4-28.8 32-41.6 12.8-12.8 25.6-22.4 41.6-32l-86.4-86.4c-12.8 9.6-25.6 22.4-38.4 35.2s-25.6 25.6-35.2 38.4l86.4 86.4zM380.8 19.2c-99.2 0-195.2 54.4-249.6 144-48 80-54.4 172.8-19.2 256 3.2-44.8 12.8-86.4 28.8-128 19.2-48 51.2-92.8 89.6-131.2s83.2-67.2 134.4-89.6c41.6-16 83.2-25.6 128-28.8-38.4-16-76.8-22.4-112-22.4zM339.2 268.8c-99.2 99.2-99.2 256 0 355.2s256 99.2 355.2 0c99.2-99.2 99.2-256 0-355.2-99.2-96-256-96-355.2 0zM825.6 211.2c-9.6-12.8-22.4-28.8-35.2-38.4-12.8-12.8-25.6-25.6-38.4-35.2l-86.4 86.4c16 9.6 28.8 22.4 41.6 32 12.8 12.8 22.4 25.6 35.2 41.6l83.2-86.4zM905.6 163.2c-54.4-89.6-150.4-144-249.6-144-38.4 0-76.8 6.4-112 22.4 44.8 3.2 86.4 12.8 128 28.8 51.2 19.2 96 51.2 134.4 89.6s67.2 83.2 89.6 134.4c16 41.6 25.6 83.2 28.8 128 35.2-86.4 28.8-179.2-19.2-259.2z" />
<glyph unicode="&#xe613;" d="M688 672c12.8 6.4 22.4 12.8 32 19.2 38.4 25.6 57.6 60.8 57.6 92.8 0 28.8-12.8 67.2-32 83.2-19.2 19.2-44.8 28.8-70.4 28.8-28.8 0-54.4-9.6-76.8-25.6-35.2-22.4-60.8-73.6-80-112 0-3.2-3.2-3.2-3.2-6.4-6.4 16-16 44.8-25.6 57.6-16 22.4-35.2 44.8-57.6 57.6-25.6 19.2-51.2 28.8-80 28.8s-54.4-12.8-73.6-32c-19.2-19.2-32-60.8-32-89.6 0-16 6.4-35.2 16-51.2 9.6-19.2 32-38.4 60.8-51.2h364.8zM332.8 726.4c-12.8 9.6-22.4 19.2-28.8 25.6-3.2 9.6-6.4 25.6-6.4 32 0 12.8 6.4 32 16 41.6s25.6 16 35.2 16v0c16 0 32-6.4 48-16 28.8-16 51.2-57.6 64-89.6 9.6-16 16-32 19.2-48-70.4 6.4-118.4 22.4-147.2 38.4zM582.4 764.8c12.8 19.2 28.8 51.2 44.8 60.8s32 16 48 16v0c12.8 0 25.6-6.4 35.2-12.8s12.8-22.4 12.8-32c0-12.8-6.4-38.4-35.2-60.8-25.6-19.2-73.6-38.4-144-54.4 6.4 28.8 22.4 57.6 38.4 83.2zM160 448h320v-448h-320v448zM544 448h320v-448h-320v448zM96 672h384v-192h-384v192zM544 672h384v-192h-384v192z" />
<glyph unicode="&#xe614;" d="M192 704v-640h-16c-32 0-57.6 9.6-80 32s-32 48-32 80v416c0 32 9.6 57.6 32 80s48 32 80 32h16zM768 704v-640h-512v640h64v80c0 12.8 3.2 25.6 12.8 35.2s22.4 12.8 35.2 12.8h288c12.8 0 25.6-3.2 35.2-12.8 6.4-9.6 12.8-22.4 12.8-35.2v-80h64zM704 336v96c0 3.2 0 9.6-3.2 12.8s-9.6 3.2-12.8 3.2h-112v112c0 3.2 0 9.6-3.2 12.8s-6.4 3.2-12.8 3.2h-96c-3.2 0-9.6 0-12.8-3.2-3.2-6.4-3.2-9.6-3.2-12.8v-112h-112c-3.2 0-9.6 0-12.8-3.2-3.2-6.4-3.2-9.6-3.2-12.8v-96c0-3.2 0-9.6 3.2-12.8s6.4-3.2 12.8-3.2h112v-112c0-3.2 0-9.6 3.2-12.8s6.4-3.2 12.8-3.2h96c3.2 0 9.6 0 12.8 3.2s3.2 6.4 3.2 12.8v112h112c3.2 0 9.6 0 12.8 3.2s3.2 6.4 3.2 12.8zM384 704h256v64h-256v-64zM956.8 592v-416c0-32-9.6-57.6-32-80s-48-32-80-32h-16v640h16c32 0 57.6-9.6 80-32s32-48 32-80z" />
<glyph unicode="&#xe615;" d="M256 825.6v-723.2c0-99.2 512-99.2 512 0v720c0 99.2-512 99.2-512 3.2zM531.2 96h-35.2c-44.8 0-44.8 96 0 96h35.2c44.8 0 44.8-96 0-96zM704 224h-384v576h384v-576z" />
<glyph unicode="&#xe616;" d="M960 300.8v192c0 12.8-3.2 22.4-9.6 35.2l-96 153.6c-12.8 19.2-32 25.6-54.4 25.6h-160v-227.2h-32v249.6c0 35.2-19.2 38.4-54.4 38.4h-425.6c-35.2 0-64-3.2-64-38.4v-496c0-16 12.8-41.6 32-41.6h35.2c0 0 0 6.4 0 3.2 0-70.4 57.6-124.8 128-124.8s128 51.2 128 121.6c0 0 0-3.2 0-3.2h252.8c0 0 0 6.4 0 3.2 0-70.4 57.6-124.8 128-124.8s128 51.2 128 121.6c0 0 0-3.2 0-3.2h64c19.2 0 32 25.6 32 44.8v32c0 22.4 0 38.4-32 38.4zM256 137.6c-35.2 0-64 28.8-64 64s28.8 64 64 64c35.2 0 64-28.8 64-64 3.2-35.2-25.6-64-64-64zM764.8 137.6c-35.2 0-64 28.8-64 64s28.8 64 64 64c35.2 0 64-28.8 64-64s-28.8-64-64-64zM873.6 480h-169.6v128h99.2c22.4 0 25.6 3.2 41.6-25.6l41.6-73.6c9.6-16 9.6-28.8-12.8-28.8z" />
<glyph unicode="&#xe617;" d="M508.8 896c-246.4 0-448-201.6-448-448s201.6-448 448-448c246.4 0 448 201.6 448 448s-198.4 448-448 448zM224 438.4c80-112 128-70.4 214.4-134.4s38.4 48 0 48c-38.4 0-64 80-64 80s-16 57.6 12.8 86.4 41.6-6.4 64 0 38.4 38.4 25.6 67.2c-9.6 28.8-38.4-22.4-54.4-16s-6.4 28.8 80 51.2c89.6 19.2 28.8 51.2 28.8 51.2s-38.4-19.2-70.4 6.4c-32 22.4-25.6-41.6-60.8 22.4-19.2 41.6-64 38.4-102.4 35.2 60.8 44.8 131.2 70.4 211.2 70.4 108.8 0 208-51.2 275.2-128-32-3.2-76.8-19.2-86.4-57.6l-48-54.4c-57.6-67.2 22.4-121.6 38.4-115.2 16 3.2 41.6 28.8 64-19.2 19.2-48 19.2-144 32-160 6.4-6.4 22.4-6.4 41.6 0-41.6-73.6-108.8-131.2-192-163.2 0 6.4-3.2 9.6-3.2 9.6l32 48c0 0 25.6 32 28.8 48 3.2 12.8 38.4 28.8 57.6 67.2 19.2 35.2-83.2 12.8-70.4 22.4 12.8 6.4-22.4 16-64 28.8s-57.6 64-57.6 64c-102.4 41.6-19.2-134.4-19.2-134.4s28.8-9.6 32-38.4c3.2-25.6-6.4-102.4 25.6-121.6-25.6-6.4-54.4-9.6-83.2-9.6-198.4 0-358.4 160-358.4 358.4 0 28.8 3.2 57.6 9.6 83.2 9.6-22.4 28.8-51.2 60.8-96z" />
<glyph unicode="&#xe618;" d="M864 768h-704c-35.2 0-64-28.8-64-64v-332.8c41.6 32 89.6 48 144 48 131.2 0 240-108.8 240-240 0-16-3.2-35.2-6.4-51.2h390.4c35.2 0 64 28.8 64 64v512c0 35.2-28.8 64-64 64zM800 224c-19.2 0-35.2 9.6-48 22.4-12.8-12.8-28.8-22.4-48-22.4-35.2 0-64 28.8-64 64s28.8 64 64 64c19.2 0 35.2-9.6 48-22.4 12.8 12.8 28.8 22.4 48 22.4 35.2 0 64-28.8 64-64s-28.8-64-64-64zM896 448h-768v160h768v-160zM240 352c-96 0-176-80-176-176s80-176 176-176c96 0 176 80 176 176 0 99.2-80 176-176 176zM195.2 64l-28.8 28.8-6.4 9.6-54.4 54.4 38.4 38.4 54.4-54.4 131.2 131.2 38.4-38.4-172.8-169.6z" />
<glyph unicode="&#xe619;" d="M803.2 377.6c22.4 22.4 35.2 51.2 44.8 96 9.6-3.2 22.4 9.6 25.6 25.6s9.6 44.8 0 48c-3.2 0-9.6 0-9.6 0v48c0 51.2-6.4 99.2-60.8 121.6-9.6 19.2-9.6 38.4-9.6 38.4-12.8-12.8-44.8-19.2-70.4-25.6 12.8-41.6 12.8-83.2 12.8-105.6v-32c32-19.2 12.8-76.8 6.4-96-6.4-22.4-22.4-41.6-38.4-48-6.4-32-19.2-60.8-35.2-86.4 83.2-41.6 144-115.2 172.8-201.6h118.4c0 96-64 185.6-156.8 217.6zM345.6 361.6c-12.8 22.4-25.6 51.2-32 86.4-19.2 9.6-35.2 28.8-38.4 51.2-12.8 44.8-19.2 76.8 12.8 92.8v32c0 9.6 0 22.4 0 32 0 25.6 0 48 3.2 67.2-16-3.2-28.8-3.2-28.8-3.2v0c-118.4-12.8-102.4-57.6-102.4-128v-48c0 0-3.2 3.2-6.4 0-9.6-3.2-6.4-28.8-3.2-44.8s19.2-25.6 28.8-25.6c6.4-44.8 22.4-76.8 41.6-96-92.8-35.2-156.8-121.6-156.8-217.6h112c25.6 86.4 86.4 156.8 169.6 201.6zM620.8 348.8c28.8 25.6 48 67.2 57.6 124.8 12.8-3.2 28.8 9.6 35.2 32s16 57.6 3.2 60.8c-3.2 0-9.6 0-9.6-3.2v60.8c0 67.2-9.6 128-80 156.8-19.2 28.8-19.2 51.2-19.2 51.2-32-28.8-156.8-41.6-156.8-41.6v0c-153.6-16-131.2-70.4-131.2-166.4v-60.8c0 3.2-6.4 3.2-12.8 3.2-12.8-3.2-9.6-38.4-3.2-60.8s25.6-35.2 38.4-32c9.6-60.8 28.8-99.2 54.4-124.8-121.6-44.8-204.8-156.8-204.8-284.8h633.6c0 128-86.4 240-204.8 284.8z" />
<glyph unicode="&#xe61a;" d="M646.4 675.2l-134.4-137.6-134.4 134.4c-25.6 25.6-64 25.6-89.6 0s-25.6-64 0-89.6l134.4-134.4-134.4-134.4c-25.6-25.6-25.6-64 0-89.6s64-25.6 89.6 0l134.4 134.4 134.4-134.4c25.6-25.6 64-25.6 89.6 0s25.6 64 0 89.6l-134.4 134.4 134.4 134.4c25.6 25.6 25.6 64 0 89.6s-64 28.8-89.6 3.2z" />
<glyph unicode="&#xe61b;" d="M668.8 342.4c9.6 0 16 3.2 22.4 9.6 12.8 12.8 12.8 32 0 44.8l-160 150.4c-12.8 12.8-32 12.8-44.8 0l-156.8-150.4c-12.8-12.8-12.8-32 0-44.8s32-12.8 44.8 0l137.6 128 137.6-128c3.2-6.4 12.8-9.6 19.2-9.6z" />
<glyph unicode="&#xe61c;" d="M406.4 608c0 9.6 3.2 16 9.6 22.4 12.8 12.8 32 12.8 44.8 0l150.4-160c12.8-12.8 12.8-32 0-44.8l-150.4-156.8c-12.8-12.8-32-12.8-44.8 0s-12.8 32 0 44.8l128 137.6-128 137.6c-9.6 3.2-9.6 9.6-9.6 19.2z" />
<glyph unicode="&#xe61d;" d="M307.2 809.6l361.6-361.6-361.6-361.6 44.8-44.8 406.4 406.4-406.4 406.4z" />
<glyph unicode="&#xe61e;" d="M620.8 608c0 9.6-3.2 16-9.6 22.4-12.8 12.8-32 12.8-44.8 0l-150.4-160c-12.8-12.8-12.8-32 0-44.8l150.4-156.8c12.8-12.8 32-12.8 44.8 0s12.8 32 0 44.8l-128 137.6 128 137.6c6.4 3.2 9.6 9.6 9.6 19.2z" />
<glyph unicode="&#xe61f;" d="M726.4 809.6l-361.6-361.6 361.6-361.6-44.8-44.8-406.4 406.4 406.4 406.4z" />
<glyph unicode="&#xe620;" d="M355.2 553.6c-9.6 0-16-3.2-22.4-9.6-12.8-12.8-12.8-32 0-44.8l160-150.4c12.8-12.8 32-12.8 44.8 0l156.8 150.4c12.8 12.8 12.8 32 0 44.8s-32 12.8-44.8 0l-137.6-128-137.6 128c-3.2 9.6-12.8 9.6-19.2 9.6z" />
<glyph unicode="&#xe621;" d="M636.8 608c9.6 0 19.2 0 25.6 0 0 0 0 3.2 0 3.2 0 112-124.8 201.6-275.2 201.6-153.6 0-275.2-89.6-275.2-201.6 0-51.2 28.8-102.4 73.6-137.6l-28.8-166.4 124.8 115.2c16-3.2 28.8-6.4 44.8-9.6 25.6 112 153.6 195.2 310.4 195.2zM912 380.8c0 112-124.8 201.6-275.2 201.6-153.6 0-275.2-89.6-275.2-201.6s124.8-201.6 275.2-201.6c28.8 0 57.6 3.2 83.2 9.6l124.8-115.2-25.6 156.8c57.6 35.2 92.8 89.6 92.8 150.4z" />
<glyph unicode="&#xe622;" d="M710.4 896l-32-73.6 179.2-124.8zM627.2 796.8l32 99.2h-467.2v-832h345.6c-16 64-25.6 80-25.6 121.6 0 140.8 115.2 259.2 256 259.2 35.2 0 64-3.2 96-16v214.4l-236.8 153.6zM448 416h-160v32h160v-32zM736 512h-448v32h448v-32zM736 608h-448v32h448v-32zM768 384c-105.6 0-192-86.4-192-192s86.4-192 192-192 192 86.4 192 192c0 105.6-86.4 192-192 192zM822.4 115.2c-6.4-9.6-12.8-16-19.2-19.2s-16-6.4-25.6-9.6v-38.4h-25.6v38.4c-12.8 0-22.4 6.4-32 9.6-9.6 6.4-19.2 12.8-25.6 19.2l22.4 28.8c6.4-6.4 12.8-12.8 19.2-19.2 6.4-3.2 16-6.4 22.4-6.4 9.6 0 16 3.2 22.4 6.4s6.4 9.6 6.4 16c0 6.4-3.2 12.8-6.4 16s-12.8 6.4-19.2 12.8c-9.6 3.2-16 6.4-22.4 9.6s-16 6.4-19.2 12.8c-6.4 3.2-9.6 9.6-16 16-3.2 6.4-6.4 16-6.4 25.6 0 12.8 3.2 22.4 9.6 28.8 6.4 9.6 12.8 12.8 22.4 16 6.4 3.2 16 6.4 22.4 6.4v44.8h25.6v-41.6c9.6 0 19.2-3.2 28.8-9.6s16-12.8 22.4-19.2l-22.4-25.6c-6.4 6.4-12.8 12.8-19.2 16s-12.8 3.2-19.2 3.2c-9.6 0-16-3.2-19.2-6.4-6.4-3.2-6.4-9.6-6.4-16 0-3.2 0-6.4 3.2-9.6s3.2-6.4 6.4-6.4 6.4-3.2 9.6-6.4c3.2 0 6.4-3.2 6.4-3.2 6.4-3.2 16-6.4 22.4-9.6s16-6.4 22.4-12.8c6.4-6.4 12.8-9.6 16-19.2 3.2-6.4 6.4-16 6.4-28.8-3.2 0-6.4-9.6-12.8-19.2z" />
<glyph unicode="&#xe623;" d="M512 896c-246.4 0-448-201.6-448-448s201.6-448 448-448c246.4 0 448 201.6 448 448s-198.4 448-448 448zM556.8 172.8c-12.8-9.6-25.6-12.8-41.6-12.8s-28.8 6.4-41.6 16-16 22.4-16 41.6c0 16 6.4 28.8 16 38.4s25.6 16 41.6 16c16 0 28.8-6.4 41.6-16 9.6-9.6 16-25.6 16-38.4 0-19.2-6.4-35.2-16-44.8zM569.6 592l-16-185.6c-3.2-22.4-6.4-38.4-12.8-51.2s-16-19.2-28.8-19.2c-12.8 0-22.4 6.4-28.8 16-6.4 12.8-9.6 28.8-12.8 51.2l-12.8 179.2c-3.2 35.2-3.2 60.8-3.2 76.8 0 22.4 6.4 38.4 16 48 9.6 12.8 25.6 16 41.6 16 22.4 0 35.2-6.4 44.8-22.4s9.6-35.2 9.6-64c6.4-12.8 6.4-28.8 3.2-44.8z" />
<glyph unicode="&#xe624;" d="M512 896c-246.4 0-448-201.6-448-448s201.6-448 448-448c246.4 0 448 201.6 448 448s-198.4 448-448 448zM512 704c35.2 0 64-28.8 64-64s-28.8-64-64-64-64 28.8-64 64c0 35.2 28.8 64 64 64zM576 192h-128v320h128v-320z" />
<glyph unicode="&#xe625;" d="M512 896c-246.4 0-448-201.6-448-448s201.6-448 448-448 448 201.6 448 448-198.4 448-448 448zM441.6 224l-57.6 54.4-131.2 131.2 73.6 73.6 112-112 259.2 259.2 73.6-73.6-329.6-332.8z" />
<glyph unicode="&#xe626;" d="M512 892.8c-246.4 0-448-201.6-448-448s201.6-448 448-448 448 201.6 448 448-201.6 448-448 448zM723.2 316.8l-76.8-76.8-134.4 137.6-134.4-134.4-76.8 76.8 134.4 134.4-134.4 134.4 76.8 76.8 134.4-134.4 134.4 134.4 76.8-76.8-134.4-134.4 134.4-137.6z" />
<glyph unicode="&#xe627;" d="M832 448h-32c-19.2 0-32-12.8-32-32v-192h-512v192c0 19.2-12.8 32-32 32h-32c-19.2 0-32-12.8-32-32v-256c0-19.2 12.8-32 32-32h640c19.2 0 32 12.8 32 32v256c0 19.2-12.8 32-32 32zM320 480l192-182.4 195.2 182.4h-131.2v288h-128v-288z" />
<glyph unicode="&#xe628;" d="M784 384c-96 0-176-80-176-176s80-176 176-176c96 0 176 80 176 176 0 99.2-76.8 176-176 176zM864 192h-64v-64h-32v64h-64v32h64v64h32v-64h64v-32zM576 224h-320v192c0 19.2-12.8 32-32 32h-32c-19.2 0-32-12.8-32-32v-256c0-19.2 12.8-32 32-32h384v96zM320 480l192-182.4 195.2 182.4h-131.2v288h-128v-288z" />
<glyph unicode="&#xe629;" d="M320 800v-800l288 278.4 288-278.4v800h-576zM784 896h-560v-784l64 57.6v662.4h496z" />
<glyph unicode="&#xe62a;" d="M512 816c-204.8 0-368-166.4-368-368s163.2-368 368-368 364.8 166.4 364.8 368-163.2 368-364.8 368zM502.4 182.4c-32 0-54.4 28.8-54.4 57.6 0 32 22.4 57.6 54.4 57.6 35.2 0 57.6-28.8 57.6-57.6s-22.4-57.6-57.6-57.6zM592 438.4c-32-32-44.8-70.4-44.8-89.6 0 0 0-28.8-12.8-28.8h-54.4c-19.2 0-16 38.4-16 38.4v16c0 38.4 16 67.2 54.4 105.6 22.4 22.4 41.6 44.8 41.6 76.8 0 28.8-19.2 48-54.4 48-22.4 0-51.2-12.8-76.8-44.8-12.8-12.8-22.4 0-22.4 0l-32 32c0 0-12.8 12.8 0 25.6 35.2 38.4 89.6 64 140.8 64 99.2 0 140.8-73.6 137.6-124.8-3.2-44.8-22.4-80-60.8-118.4zM512 896c-249.6 0-448-201.6-448-448s201.6-448 448-448 448 201.6 448 448-201.6 448-448 448zM512 48c-220.8 0-400 179.2-400 400s179.2 400 400 400c220.8 0 400-179.2 400-400-3.2-220.8-182.4-400-400-400z" />
<glyph unicode="&#xe62b;" d="M710.4 249.6l-44.8 22.4c6.4 28.8 6.4 57.6 0 86.4l44.8 22.4c9.6 6.4 16 19.2 12.8 28.8-6.4 22.4-16 41.6-25.6 60.8-6.4 9.6-19.2 16-28.8 9.6l-48-16c-16 25.6-38.4 44.8-60.8 60.8l16 48c3.2 9.6 0 22.4-9.6 28.8s-19.2 9.6-28.8 16c-9.6 3.2-22.4 6.4-32 9.6s-22.4-3.2-28.8-12.8l-28.8-38.4c-28.8 6.4-57.6 6.4-86.4 0l-22.4 44.8c-6.4 9.6-19.2 16-28.8 12.8-22.4-6.4-41.6-12.8-64-25.6-9.6-6.4-16-19.2-9.6-28.8l16-48c-25.6-16-44.8-38.4-60.8-60.8l-48 16c-9.6 3.2-22.4 0-28.8-9.6s-9.6-19.2-16-28.8c-3.2-9.6-6.4-22.4-9.6-32s3.2-22.4 12.8-28.8l44.8-22.4c-6.4-28.8-6.4-57.6 0-86.4l-44.8-22.4c-9.6-6.4-16-19.2-12.8-28.8 6.4-22.4 16-41.6 25.6-60.8 6.4-9.6 19.2-16 28.8-9.6l48 16c16-25.6 38.4-44.8 60.8-60.8l-16-48c-3.2-9.6 0-22.4 9.6-28.8s19.2-9.6 28.8-16c9.6-3.2 22.4-6.4 32-9.6s22.4 3.2 28.8 12.8l22.4 44.8c28.8-6.4 57.6-6.4 86.4 0l22.4-44.8c6.4-9.6 19.2-16 28.8-12.8 22.4 6.4 41.6 16 60.8 25.6 9.6 6.4 16 19.2 9.6 28.8l-16 48c25.6 16 44.8 38.4 60.8 60.8l48-16c9.6-3.2 22.4 0 28.8 9.6s9.6 19.2 16 28.8c3.2 9.6 6.4 22.4 9.6 32 12.8 6.4 6.4 19.2-3.2 22.4zM444.8 220.8c-51.2-22.4-112 3.2-134.4 54.4s3.2 112 54.4 134.4c51.2 22.4 112-3.2 134.4-54.4s-3.2-112-54.4-134.4zM944 736l-16 44.8c-3.2 9.6-12.8 16-22.4 12.8l-48-9.6c-16 19.2-35.2 35.2-60.8 44.8l-6.4 51.2c-3.2 6.4-12.8 16-22.4 16h-48c-9.6 0-19.2-6.4-19.2-16l-6.4-51.2c-22.4-9.6-44.8-25.6-60.8-44.8l-48 9.6c-9.6 3.2-19.2-3.2-22.4-12.8l-16-44.8c-3.2-9.6 3.2-19.2 9.6-25.6l44.8-22.4c0-25.6 9.6-51.2 22.4-70.4l-22.4-41.6c-3.2-9.6-3.2-19.2 6.4-25.6l41.6-28.8c6.4-6.4 19.2-3.2 25.6 3.2l35.2 35.2c12.8-3.2 25.6-6.4 38.4-6.4s25.6 3.2 38.4 6.4l35.2-35.2c6.4-6.4 19.2-9.6 25.6-3.2l41.6 28.8c6.4 6.4 9.6 16 6.4 25.6l-32 44.8c12.8 19.2 22.4 44.8 22.4 70.4l44.8 22.4c9.6 0 16 12.8 12.8 22.4zM745.6 633.6c-35.2 0-64 28.8-64 64s28.8 64 64 64c35.2 0 64-28.8 64-64-3.2-35.2-28.8-64-64-64z" />
<glyph unicode="&#xe62c;" d="M896 160h-672v672c0 19.2-12.8 32-32 32h-64c-19.2 0-32-12.8-32-32v-768c0-19.2 12.8-32 32-32h768c19.2 0 32 12.8 32 32v64c0 19.2-12.8 32-32 32zM416 288c0-35.346-28.654-64-64-64s-64 28.654-64 64c0 35.346 28.654 64 64 64s64-28.654 64-64zM576 608c0-35.346-28.654-64-64-64s-64 28.654-64 64c0 35.346 28.654 64 64 64s64-28.654 64-64zM768 416c0-35.346-28.654-64-64-64s-64 28.654-64 64c0 35.346 28.654 64 64 64s64-28.654 64-64zM928 736c0-35.346-28.654-64-64-64s-64 28.654-64 64c0 35.346 28.654 64 64 64s64-28.654 64-64zM337.87 310.558l142.376 293.694 46.070-22.332-142.376-293.696-46.070 22.332zM689.876 438.544l142.376 293.696 46.070-22.334-142.376-293.694-46.070 22.332zM668.444 406.826l-160.552 169.688 34.866 32.99 160.552-169.688-34.866-32.99z" />
<glyph unicode="&#xe62d;" d="M960 188.8c3.2-16-3.2-25.6-12.8-38.4l-124.8-124.8c-6.4-6.4-12.8-12.8-22.4-16s-19.2-6.4-25.6-9.6c0 0-3.2 0-6.4 0s-6.4 0-12.8 0c-12.8 0-32 3.2-57.6 6.4s-60.8 12.8-99.2 28.8c-38.4 16-83.2 41.6-131.2 73.6s-102.4 76.8-156.8 131.2c-44.8 44.8-80 86.4-108.8 124.8s-51.2 76.8-70.4 112c-19.2 35.2-32 64-38.4 92.8-9.6 28.8-16 51.2-19.2 70.4-9.6 19.2-9.6 35.2-9.6 48 0 9.6 0 16 0 19.2 0 9.6 3.2 19.2 9.6 25.6 3.2 9.6 9.6 16 16 22.4l124.8 124.8c9.6 9.6 19.2 16 32 16 9.6 0 16-3.2 22.4-6.4s12.8-9.6 16-16l102.4-192c6.4-9.6 6.4-22.4 3.2-32-3.2-12.8-6.4-22.4-16-28.8l-48-48c0 0-3.2-3.2-3.2-6.4s0-6.4 0-6.4c3.2-12.8 9.6-28.8 16-44.8s19.2-35.2 35.2-54.4c16-22.4 38.4-48 67.2-76.8s54.4-51.2 76.8-67.2c22.4-16 41.6-28.8 54.4-35.2 16-6.4 25.6-12.8 35.2-12.8l12.8-3.2c0 0 3.2 0 6.4 0s6.4 3.2 6.4 3.2l54.4 54.4c12.8 9.6 25.6 16 38.4 16 9.6 0 19.2-3.2 25.6-6.4v0l182.4-108.8c16-12.8 22.4-22.4 25.6-35.2z" />
<glyph unicode="&#xe62e;" d="M960 240c0-19.2-6.4-38.4-16-54.4l-284.8 316.8 281.6 246.4c12.8-19.2 19.2-38.4 19.2-60.8v-448zM512 444.8l390.4 342.4c-16 9.6-35.2 12.8-54.4 12.8h-672c-19.2 0-38.4-3.2-54.4-12.8l390.4-342.4zM620.8 467.2l-89.6-80c-6.4-3.2-12.8-6.4-19.2-6.4s-12.8 3.2-19.2 6.4l-89.6 80-284.8-320c16-12.8 35.2-19.2 57.6-19.2h672c22.4 0 41.6 6.4 57.6 16l-284.8 323.2zM80 748.8c-9.6-19.2-16-38.4-16-60.8v-448c0-19.2 6.4-38.4 16-54.4l281.6 316.8-281.6 246.4z" />
<glyph unicode="&#xe62f;" d="M288 256v-128c0-70.4 54.4-128 124.8-128h256c70.4 0 131.2 57.6 131.2 128v640c0 70.4-60.8 128-131.2 128h-256c-70.4 0-124.8-57.6-124.8-128v-32h64v32h384v-576h-384v64h-64zM502.4 89.6c0 32 25.6 57.6 57.6 57.6s57.6-25.6 57.6-57.6c0-32-25.6-57.6-57.6-57.6s-57.6 28.8-57.6 57.6zM176 476.8v147.2l-35.2-22.4-16 28.8 57.6 41.6h28.8v-192h-35.2zM265.6 476.8v22.4c0 9.6 0 19.2 6.4 25.6 3.2 12.8 9.6 19.2 16 22.4l41.6 32c6.4 6.4 12.8 9.6 16 16s3.2 12.8 3.2 19.2c0 9.6-3.2 16-6.4 19.2-6.4 3.2-12.8 6.4-19.2 6.4s-9.6 0-16-3.2-9.6-3.2-12.8-6.4-6.4-6.4-9.6-6.4c-3.2-3.2-3.2-3.2-6.4-6.4l-16 28.8c3.2 3.2 6.4 6.4 12.8 9.6s9.6 6.4 16 9.6c6.4 3.2 12.8 3.2 19.2 6.4 6.4 0 12.8 3.2 19.2 3.2 12.8 0 25.6-3.2 35.2-9.6s16-12.8 19.2-22.4c3.2-9.6 6.4-19.2 6.4-25.6 0-12.8-3.2-22.4-6.4-32s-12.8-16-22.4-25.6l-28.8-22.4c-6.4-3.2-9.6-6.4-12.8-9.6s-6.4-3.2-6.4-6.4-6.4-6.4-6.4-9.6h86.4v-35.2h-128zM473.6 473.6c-12.8 0-25.6 3.2-38.4 6.4-9.6 3.2-19.2 9.6-28.8 16l16 32c6.4-6.4 12.8-9.6 22.4-16 6.4-3.2 16-6.4 25.6-6.4 12.8 0 19.2 3.2 25.6 9.6s9.6 12.8 9.6 22.4c0 12.8-3.2 19.2-12.8 25.6-6.4 6.4-16 6.4-28.8 6.4-3.2 0-6.4 0-9.6 0s-6.4 0-9.6 0v22.4c3.2 6.4 6.4 12.8 9.6 16s3.2 6.4 6.4 6.4 6.4 6.4 6.4 9.6c3.2 3.2 6.4 6.4 9.6 9.6s3.2 3.2 6.4 6.4h-73.6v32h121.6v-32c-3.2-3.2-6.4-3.2-9.6-6.4s-6.4-6.4-9.6-9.6c-9.6-6.4-12.8-12.8-19.2-16-3.2-3.2-6.4-6.4-9.6-9.6 12.8 0 25.6-3.2 32-9.6 3.2-3.2 9.6-6.4 12.8-9.6s6.4-6.4 6.4-12.8c3.2-3.2 3.2-9.6 3.2-12.8s0-9.6 0-12.8-3.2-19.2-6.4-28.8c-3.2-9.6-9.6-16-16-19.2-6.4-6.4-12.8-9.6-22.4-12.8s-9.6-6.4-19.2-6.4zM160 384h288v-64h-288v64zM448 262.4v179.2l89.6-89.6z" />
<glyph unicode="&#xe630;" d="M384 329.6l182.4 182.4-182.4 182.4v-118.4h-288v-128h288zM288 896h-64v-256h64v192h512l-192-96v-544h-320v192h-64v-256h384v-128l320 160v736z" />
<glyph unicode="&#xe631;" d="M928 192h-457.6c-19.2 38.4-57.6 64-102.4 64s-83.2-25.6-102.4-64h-169.6v-96h172.8c19.2-38.4 57.6-64 99.2-64s83.2 25.6 99.2 64h460.8v96zM368 64c-25.6 0-51.2 12.8-64 32-3.2 3.2-3.2 6.4-6.4 9.6 0 0 0 3.2-3.2 3.2 0 3.2-3.2 6.4-3.2 6.4 0 3.2 0 3.2-3.2 6.4 0 3.2 0 3.2 0 6.4s0 9.6 0 16c0 6.4 0 9.6 0 16 0 3.2 0 6.4 3.2 6.4 0 3.2 0 3.2 3.2 6.4 0 3.2 3.2 6.4 3.2 9.6 0 0 0 0 0 3.2 3.2 3.2 3.2 6.4 6.4 9.6v0c16 19.2 38.4 32 64 32s48-12.8 64-32v0c3.2-3.2 3.2-6.4 6.4-9.6 0 0 0 0 0-3.2s3.2-6.4 3.2-9.6c0-3.2 0-3.2 3.2-6.4 0-3.2 0-3.2 3.2-6.4 0-3.2 0-9.6 0-16s0-9.6 0-16c0-3.2 0-3.2 0-6.4s0-6.4-3.2-6.4c0-3.2-3.2-6.4-3.2-6.4s0-3.2-3.2-3.2c0-3.2-3.2-6.4-6.4-9.6-12.8-19.2-38.4-32-64-32zM96 832v-544h832v544h-832zM665.6 560l-272-150.4c-6.4-3.2-9.6 0-9.6 6.4v300.8c0 6.4 3.2 9.6 9.6 6.4l272-150.4c6.4-3.2 6.4-9.6 0-12.8z" />
<glyph unicode="&#xe632;" d="M358.4 256c-44.8 0-83.2-25.6-102.4-64h-160v-96h163.2c19.2-38.4 57.6-64 99.2-64s83.2 25.6 99.2 64h470.4v96h-467.2c-19.2 38.4-57.6 64-102.4 64zM438.4 128c0-3.2 0-3.2 0-6.4s0-6.4-3.2-6.4c0-3.2-3.2-6.4-3.2-6.4s0-3.2-3.2-3.2c0-3.2-3.2-6.4-6.4-9.6-16-19.2-38.4-32-64-32s-51.2 12.8-64 32c-3.2 3.2-3.2 6.4-6.4 9.6 0 0 0 3.2-3.2 3.2 0 3.2-3.2 6.4-3.2 6.4 0 3.2 0 3.2-3.2 6.4 0 3.2 0 3.2 0 6.4s0 9.6 0 16c0 6.4 0 9.6 0 16 0 3.2 0 6.4 3.2 6.4 0 3.2 0 3.2 3.2 6.4 0 3.2 3.2 6.4 3.2 9.6 0 0 0 0 0 3.2 3.2 3.2 3.2 6.4 6.4 9.6 16 19.2 38.4 32 64 32s48-12.8 64-32c3.2-3.2 3.2-6.4 6.4-9.6 0 0 0 0 0-3.2s3.2-6.4 3.2-9.6c0-3.2 0-3.2 3.2-6.4 0-3.2 0-3.2 3.2-6.4 0-3.2 0-9.6 0-16s0-9.6 0-16zM96 832v-544h832v544h-832zM672 470.4c0-35.2-54.4-48-80-48s-80 12.8-80 48 51.2 48 80 48c16 0 16-3.2 48-9.6v131.2l-192-57.6v-172.8c0-35.2-51.2-48-76.8-48s-76.8 12.8-76.8 48c0 35.2 51.2 48 76.8 48 16 0 44.8-3.2 44.8-9.6v230.4c0 9.6 9.6 19.2 19.2 22.4l201.6 60.8c3.2 0 6.4 0 9.6 0 12.8 0 25.6-9.6 25.6-22.4v-268.8z" />
<glyph unicode="&#xe633;" d="M803.2 518.4c35.2 48 19.2 121.6-41.6 169.6-51.2 41.6-115.2 48-156.8 19.2-41.6 57.6-108.8 96-179.2 96-121.6-3.2-217.6-99.2-217.6-220.8 0-6.4 0-12.8 0-19.2-67.2-32-112-102.4-112-176 0-105.6 86.4-195.2 192-195.2h467.2c92.8 0 166.4 76.8 166.4 166.4 3.2 73.6-48 140.8-118.4 160zM672 419.2l-160-160c-6.4-6.4-19.2-6.4-25.6 0l-160 163.2c-6.4 6.4-6.4 28.8 0 28.8h89.6v160c0 19.2 12.8 32 32 32h96c19.2 0 32-12.8 32-32v-160h96c6.4-3.2 6.4-25.6 0-32z" />
<glyph unicode="&#xe634;" d="M707.2 672h-390.4c-121.6 0-220.8-99.2-220.8-220.8s99.2-220.8 220.8-220.8c57.6 0 108.8 25.6 147.2 57.6h96c38.4-32 89.6-57.6 147.2-57.6 121.6 0 220.8 99.2 220.8 220.8s-99.2 220.8-220.8 220.8zM448 432c0-9.6-6.4-16-16-16h-80v-80c0-9.6-6.4-16-16-16h-32c-9.6 0-16 6.4-16 16v80h-80c-9.6 0-16 6.4-16 16v32c0 9.6 6.4 16 16 16h80v80c0 9.6 6.4 16 16 16h32c9.6 0 16-6.4 16-16v-80h80c9.6 0 16-6.4 16-16v-32zM688 320c-25.6 0-48 22.4-48 48s22.4 48 48 48 48-22.4 48-48-22.4-48-48-48zM784 448c-25.6 0-48 22.4-48 48s22.4 48 48 48 48-22.4 48-48-22.4-48-48-48z" />
<glyph unicode="&#xe635;" d="M736 745.6h-83.2c-67.2 0-80-32-80-76.8v-102.4h156.8l-22.4-160h-137.6v-406.4h-166.4v406.4h-131.2v160h137.6v118.4c0 137.6 83.2 211.2 204.8 211.2 57.6 0 108.8-3.2 121.6-6.4v-144z" />
<glyph unicode="&#xe636;" d="M512 896c-246.4 0-448-201.6-448-448s201.6-448 448-448 448 201.6 448 448-201.6 448-448 448zM512 96c-195.2 0-352 156.8-352 352s156.8 352 352 352 352-156.8 352-352-156.8-352-352-352zM544 467.2v204.8c0 25.6-22.4 48-48 48s-48-22.4-48-48v-224c0-12.8 6.4-25.6 12.8-35.2l124.8-124.8c9.6-9.6 22.4-12.8 35.2-12.8s25.6 3.2 35.2 12.8c19.2 19.2 19.2 48 0 67.2l-112 112z" />
<glyph unicode="&#xe637;" d="M502.4 297.6c6.4-6.4 16-6.4 25.6 3.2l147.2 150.4c6.4 6.4 6.4 28.8 0 28.8h-96v163.2c-3.2 16-6.4 28.8-22.4 28.8h-86.4c-19.2 0-22.4-12.8-22.4-28.8v-163.2h-92.8c-6.4 0-6.4-22.4 0-28.8l147.2-153.6zM672 896h-320c-70.4 0-128-57.6-128-128v-640c0-70.4 57.6-128 128-128h320c70.4 0 128 57.6 128 128v640c0 70.4-57.6 128-128 128zM515.2 38.4c-32 0-57.6 25.6-57.6 57.6s25.6 57.6 57.6 57.6c32 0 57.6-25.6 57.6-57.6 0-35.2-25.6-57.6-57.6-57.6zM736 192h-448v576h448v-576z" />
<glyph unicode="&#xe638;" d="M576 768h-512v-640h512l380.8 320-380.8 320zM502.4 278.4l-124.8 89.6-121.6-89.6 48 144-124.8 89.6h153.6l48 144 48-144h153.6l-121.6-89.6 41.6-144z" />
<glyph unicode="&#xe639;" d="M508.8 896c-246.4 0-448-201.6-448-448s201.6-448 448-448 448 201.6 448 448-198.4 448-448 448zM678.4 672c32 0 57.6-38.4 57.6-83.2 0-48-25.6-83.2-57.6-83.2s-57.6 38.4-57.6 83.2c0 44.8 25.6 83.2 57.6 83.2zM342.4 672c32 0 57.6-38.4 57.6-83.2 0-48-25.6-83.2-57.6-83.2s-57.6 38.4-57.6 83.2c0 44.8 25.6 83.2 57.6 83.2zM508.8 169.6c-147.2 0-268.8 121.6-281.6 278.4 83.2-48 179.2-73.6 281.6-73.6s198.4 25.6 281.6 73.6c-12.8-156.8-134.4-278.4-281.6-278.4z" />
<glyph unicode="&#xe63a;" d="M512 896c-246.4 0-448-201.6-448-448s201.6-448 448-448 448 201.6 448 448c0 246.4-201.6 448-448 448zM681.6 672c32 0 57.6-25.6 57.6-57.6s-25.6-57.6-57.6-57.6c-32 0-57.6 25.6-57.6 57.6s25.6 57.6 57.6 57.6zM342.4 672c32 0 57.6-25.6 57.6-57.6s-25.6-57.6-57.6-57.6-54.4 28.8-54.4 60.8 25.6 54.4 54.4 54.4zM512 166.4c-102.4 0-192 54.4-240 137.6l73.6 44.8c35.2-57.6 96-96 169.6-96s134.4 38.4 169.6 96l73.6-44.8c-54.4-83.2-144-137.6-246.4-137.6z" />
<glyph unicode="&#xe63b;" d="M505.6 896c-246.4 0-448-201.6-448-448s201.6-448 448-448 448 201.6 448 448-198.4 448-448 448zM675.2 672c32 0 54.4-25.6 54.4-54.4s-25.6-54.4-54.4-54.4-54.4 25.6-54.4 54.4 22.4 54.4 54.4 54.4zM281.6 617.6c0 32 25.6 54.4 54.4 54.4s54.4-25.6 54.4-54.4-25.6-54.4-54.4-54.4-54.4 22.4-54.4 54.4zM348.8 192l-19.2 67.2 380.8 112 19.2-67.2-380.8-112z" />
<glyph unicode="&#xe63c;" d="M512 896c-246.4 0-448-201.6-448-448s201.6-448 448-448c246.4 0 448 201.6 448 448s-198.4 448-448 448zM681.6 672c32 0 57.6-25.6 57.6-57.6s-25.6-57.6-57.6-57.6-57.6 25.6-57.6 57.6c0 32 25.6 57.6 57.6 57.6zM345.6 672c32 0 57.6-25.6 57.6-57.6s-25.6-57.6-57.6-57.6-57.6 28.8-57.6 57.6c0 32 25.6 57.6 57.6 57.6zM681.6 211.2c-35.2 57.6-96 96-169.6 96s-134.4-38.4-169.6-96l-70.4 44.8c48 80 137.6 134.4 240 134.4s192-54.4 240-134.4l-70.4-44.8z" />
<glyph unicode="&#xe63d;" d="M512 896c-246.4 0-448-198.4-448-448s201.6-448 448-448 448 201.6 448 448-201.6 448-448 448zM569.6 563.2c3.2 41.6 38.4 70.4 70.4 86.4 28.8 16 60.8 22.4 60.8 22.4 16 3.2 28.8-6.4 35.2-19.2 3.2-16-6.4-28.8-19.2-35.2-16-3.2-35.2-9.6-51.2-19.2 9.6-9.6 16-22.4 16-38.4 0-32-25.6-57.6-57.6-57.6-32 3.2-54.4 28.8-54.4 60.8 0 0 0 0 0 0zM288 652.8c3.2 12.8 19.2 22.4 35.2 19.2 0 0 32-6.4 60.8-22.4 32-16 70.4-44.8 70.4-86.4 0 0 0-3.2 0-3.2 0-32-25.6-57.6-57.6-57.6s-57.6 25.6-57.6 57.6c0 16 6.4 28.8 16 38.4-16 9.6-35.2 16-51.2 19.2-9.6 3.2-19.2 19.2-16 35.2zM681.6 214.4c-35.2 57.6-96 96-169.6 96s-134.4-38.4-169.6-96l-70.4 41.6c48 80 137.6 134.4 240 134.4s192-54.4 240-134.4l-70.4-41.6z" />
<glyph unicode="&#xe63e;" d="M841.6 617.6c0-6.4 0-16 0-22.4 0-224-172.8-486.4-486.4-486.4-96 0-185.6 28.8-262.4 76.8 12.8 0 25.6-3.2 41.6-3.2 80 0 153.6 25.6 211.2 73.6-73.6 0-137.6 51.2-160 118.4 9.6 0 22.4-3.2 32-3.2 16 0 32 3.2 44.8 6.4-76.8 16-137.6 83.2-137.6 166.4 0 0 0 0 0 3.2 22.4-12.8 48-19.2 76.8-22.4-44.8 32-76.8 83.2-76.8 140.8 0 32 9.6 60.8 22.4 86.4 83.2-102.4 211.2-169.6 352-179.2-3.2 12.8-3.2 25.6-3.2 38.4 0 92.8 76.8 169.6 169.6 169.6 48 0 92.8-19.2 124.8-54.4 38.4 6.4 76.8 22.4 108.8 41.6-6.4-32-35.2-67.2-70.4-86.4 35.2 3.2 67.2 12.8 99.2 25.6-22.4-35.2-51.2-64-86.4-89.6z" />
<glyph unicode="&#xe63f;" d="M512 0c-246.4 0-448 201.6-448 448s201.6 448 448 448 448-201.6 448-448-201.6-448-448-448zM816 576c-102.4 57.6-240 86.4-371.2 86.4-76.8 0-147.2-9.6-211.2-28.8-16-3.2-32-19.2-32-41.6s19.2-41.6 41.6-41.6c9.6 0 16 3.2 22.4 3.2 57.6 16 118.4 22.4 182.4 22.4 121.6 0 246.4-25.6 329.6-76.8 9.6-3.2 12.8-6.4 22.4-6.4 22.4 0 41.6 16 41.6 41.6 0 22.4-9.6 32-25.6 41.6zM758.4 425.6c-89.6 54.4-201.6 83.2-320 83.2-76.8 0-128-9.6-176-25.6-19.2-6.4-28.8-19.2-28.8-38.4s16-35.2 35.2-35.2c9.6 0 12.8 3.2 22.4 3.2 41.6 9.6 89.6 19.2 147.2 19.2 112 0 211.2-28.8 284.8-73.6 6.4-3.2 12.8-6.4 22.4-6.4 19.2 0 35.2 16 35.2 35.2-3.2 19.2-9.6 28.8-22.4 38.4zM704 294.4c-76.8 44.8-163.2 67.2-259.2 67.2-57.6 0-112-6.4-166.4-19.2-12.8-3.2-25.6-12.8-25.6-28.8s9.6-28.8 28.8-28.8c6.4 0 16 3.2 22.4 3.2 44.8 9.6 92.8 16 140.8 16 86.4 0 166.4-22.4 230.4-60.8 6.4-3.2 12.8-6.4 19.2-6.4 16 0 28.8 12.8 28.8 28.8-3.2 16-9.6 22.4-19.2 28.8z" />
<glyph unicode="&#xe640;" d="M96 736v-608h832v608h-832zM681.6 425.6l-278.4-150.4c-6.4-3.2-19.2 0-19.2 6.4v300.8c0 6.4 12.8 9.6 19.2 6.4l275.2-150.4c6.4-3.2 9.6-9.6 3.2-12.8z" />
<glyph unicode="&#xe641;" d="M960 115.2c0-64-51.2-115.2-115.2-115.2h-665.6c-64 0-115.2 51.2-115.2 115.2v665.6c0 60.8 51.2 115.2 115.2 115.2h665.6c64 0 115.2-51.2 115.2-115.2v-665.6zM864 515.2h-83.2c6.4-22.4 12.8-51.2 12.8-76.8 0-150.4-124.8-268.8-278.4-268.8s-278.4 121.6-278.4 268.8c0 25.6 3.2 51.2 12.8 76.8h-89.6v-384c0-19.2 16-35.2 35.2-35.2h633.6c19.2 0 35.2 16 35.2 35.2v384zM512 624c-99.2 0-179.2-76.8-179.2-172.8s80-172.8 179.2-172.8c99.2 0 179.2 76.8 179.2 172.8 3.2 92.8-80 172.8-179.2 172.8zM864 758.4c0 22.4-19.2 41.6-41.6 41.6h-112c-19.2 0-38.4-19.2-38.4-41.6v-112c0-22.4 19.2-41.6 41.6-41.6h112c22.4 0 41.6 19.2 41.6 41.6v112z" />
<glyph unicode="&#xe642;" d="M736 0c-51.2 0-99.2 16-137.6 48-28.8-6.4-57.6-9.6-86.4-9.6-227.2-3.2-409.6 182.4-409.6 409.6 0 28.8 3.2 60.8 9.6 86.4-32 38.4-48 86.4-48 137.6 0 124.8 99.2 224 224 224 51.2 0 99.2-16 137.6-48 28.8 6.4 57.6 9.6 86.4 9.6 227.2 0 409.6-182.4 409.6-409.6 0-28.8-3.2-60.8-9.6-86.4 28.8-38.4 48-86.4 48-137.6 0-124.8-102.4-224-224-224zM566.4 505.6l-60.8 12.8c-44.8 9.6-76.8 19.2-76.8 51.2s32 44.8 83.2 44.8c92.8 0 92.8-67.2 150.4-67.2 38.4 0 60.8 28.8 60.8 64 0 67.2-112 112-220.8 112-102.4 0-217.6-44.8-217.6-163.2 0-99.2 64-134.4 150.4-153.6l86.4-22.4c51.2-12.8 83.2-19.2 83.2-54.4 0-28.8-32-51.2-83.2-51.2-108.8 0-115.2 89.6-176 89.6-41.6 0-57.6-28.8-57.6-60.8 0-70.4 108.8-131.2 240-131.2 108.8 0 224 54.4 224 172.8-3.2 102.4-102.4 137.6-185.6 156.8z" />
<glyph unicode="&#xe643;" d="M864 896h-704c-54.4 0-96-41.6-96-96v-704c0-54.4 41.6-96 96-96h704c54.4 0 96 41.6 96 96v704c0 54.4-41.6 96-96 96zM480 800h320v-64h-320v64zM320 800h64v-64h-64v64zM224 800h64v-64h-64v64zM864 128c0-19.2-12.8-32-32-32h-640c-19.2 0-32 12.8-32 32v480c0 19.2 12.8 32 32 32h640c19.2 0 32-12.8 32-32v-480zM256 544h512v-224h-512v224zM256 256h512v-64h-512v64z" />
<glyph unicode="&#xe644;" d="M960 419.2c0 35.2-76.8 96-198.4 140.8-3.2-83.2-108.8-147.2-243.2-147.2-137.6 0-243.2 67.2-243.2 150.4-128-41.6-211.2-108.8-211.2-144 0-32 51.2-96 147.2-147.2l-64-70.4c-6.4-6.4-6.4-12.8 0-19.2 3.2-3.2 6.4-6.4 12.8-6.4 3.2 0 6.4 0 6.4 3.2l121.6 60.8c60.8-22.4 137.6-35.2 224-35.2 89.6 0 163.2 12.8 224 32l118.4-60.8c3.2 0 3.2-3.2 6.4-3.2 6.4 0 9.6 3.2 12.8 6.4 3.2 6.4 3.2 16 0 19.2l-60.8 67.2c99.2 54.4 147.2 121.6 147.2 153.6zM230.4 371.2c-19.2 0-32 16-32 32s16 32 32 32 32-16 32-32-12.8-32-32-32zM515.2 262.4c-25.6 0-44.8 19.2-44.8 44.8s19.2 44.8 44.8 44.8 44.8-19.2 44.8-44.8-19.2-44.8-44.8-44.8zM828.8 371.2c-19.2 0-32 16-32 32s16 32 32 32 32-16 32-32-16-32-32-32zM518.4 460.8c105.6 0 195.2 48 195.2 102.4 0 51.2-51.2 169.6-198.4 169.6-144 0-195.2-115.2-195.2-169.6 3.2-54.4 92.8-102.4 198.4-102.4z" />
<glyph unicode="&#xe645;" d="M505.6 288h12.8c86.4 0 153.6 70.4 153.6 153.6v300.8c0 83.2-70.4 153.6-153.6 153.6h-12.8c-83.2 0-153.6-70.4-153.6-153.6v-300.8c0-83.2 70.4-153.6 153.6-153.6zM800 464v80c0 19.2-12.8 32-32 32s-32-12.8-32-32v-80c0-134.4-92.8-240-208-240h-25.6c-118.4 0-214.4 108.8-214.4 240v80c0 19.2-12.8 32-32 32s-32-12.8-32-32v-80c0-160 112-291.2 256-304 0 0 0 0 0 0v-96h-160c-19.2 0-32-12.8-32-32s12.8-32 32-32h384c19.2 0 32 12.8 32 32s-12.8 32-32 32h-160v96c0 0 0 0 0 0 144 9.6 256 140.8 256 304z" />
<glyph unicode="&#xe646;" d="M64 358.4v121.6c0 9.6 9.6 19.2 19.2 19.2h214.4l-92.8-163.2h-121.6c-9.6 3.2-19.2 12.8-19.2 22.4zM217.6 108.8l-70.4-44.8c-9.6-6.4-16-3.2-16 9.6l9.6 80c0 9.6 9.6 16 19.2 9.6l54.4-28.8c9.6-9.6 12.8-19.2 3.2-25.6zM233.6 153.6l-54.4 28.8c-9.6 6.4-12.8 19.2-6.4 28.8l246.4 425.6c6.4 9.6 19.2 12.8 28.8 6.4l54.4-28.8c9.6-6.4 12.8-19.2 6.4-28.8l-246.4-422.4c-6.4-9.6-19.2-12.8-28.8-9.6zM419.2 339.2l92.8 163.2h54.4l76.8-163.2h-224zM723.2 291.2c-22.4 9.6-128 252.8-153.6 316.8s-108.8 233.6-83.2 246.4c19.2 9.6 86.4-124.8 137.6-204.8s156.8-284.8 169.6-310.4c12.8-22.4-12.8-41.6-25.6-48s-22.4-12.8-44.8 0zM793.6 179.2l-32 51.2c-6.4 9.6-3.2 22.4 6.4 28.8l32 16c9.6 6.4 25.6 0 28.8-9.6l25.6-48c6.4-9.6 3.2-25.6-9.6-32l-22.4-12.8c-6.4-9.6-22.4-6.4-28.8 6.4zM912 48c-6.4 22.4-57.6 22.4-80 54.4s-3.2 48 3.2 57.6c92.8 48 76.8-112 76.8-112zM960 358.4c0-9.6-9.6-19.2-19.2-19.2h-108.8c0 6.4-3.2 12.8-6.4 19.2s-9.6 19.2-19.2 38.4c-12.8 25.6-35.2 67.2-57.6 105.6h188.8c12.8 0 19.2-9.6 19.2-19.2l3.2-124.8z" />
<glyph unicode="&#xe647;" d="M800 537.6v76.8c0 153.6-128 281.6-281.6 281.6h-12.8c-153.6 0-281.6-128-281.6-281.6v-76.8c-38.4-12.8-64-48-64-89.6v-352c0-54.4 41.6-96 96-96h512c54.4 0 96 41.6 96 96v352c0 41.6-25.6 76.8-64 89.6zM544 297.6c0-3.2 0-3.2 0 0v-112c0-12.8-12.8-25.6-25.6-25.6h-12.8c-12.8 0-25.6 12.8-25.6 25.6v108.8c0 0 0 3.2 0 3.2-19.2 9.6-32 32-32 54.4 0 35.2 28.8 64 64 64s64-28.8 64-64c0-22.4-12.8-44.8-32-54.4zM672 544h-320v70.4c0 83.2 70.4 153.6 153.6 153.6h12.8c86.4 0 153.6-70.4 153.6-153.6v-70.4z" />
<glyph unicode="&#xe648;" d="M864 896h-704c-54.4 0-96-41.6-96-96v-704c0-54.4 41.6-96 96-96h704c54.4 0 96 41.6 96 96v704c0 54.4-41.6 96-96 96zM480 800h320v-64h-320v64zM320 800h64v-64h-64v64zM224 800h64v-64h-64v64zM864 128c0-19.2-12.8-32-32-32h-640c-19.2 0-32 12.8-32 32v480c0 19.2 12.8 32 32 32h640c19.2 0 32-12.8 32-32v-480zM640 416v35.2c0 67.2-54.4 124.8-124.8 124.8h-9.6c-67.2 0-124.8-54.4-124.8-124.8v-35.2c-19.2 0-32-12.8-32-32v-192c0-19.2 12.8-32 32-32h256c19.2 0 32 12.8 32 32v192c3.2 19.2-9.6 32-28.8 32zM544 288c0-19.2-12.8-32-32-32s-32 12.8-32 32v32c0 19.2 12.8 32 32 32s32-12.8 32-32v-32zM576 416h-128v35.2c0 32 25.6 60.8 60.8 60.8h9.6c32 0 60.8-25.6 60.8-60.8v-35.2z" />
<glyph unicode="&#xe649;" d="M870.4 716.8c12.8-25.6 22.4-60.8 22.4-99.2 0-89.6-38.4-163.2-115.2-217.6s-182.4-83.2-320-83.2h-32c-25.6 0-48-19.2-54.4-41.6l-38.4-163.2c-6.4-22.4-28.8-41.6-54.4-41.6h-67.2l-6.4-25.6c-6.4-25.6 9.6-44.8 32-44.8h112c25.6 0 48 19.2 54.4 41.6l38.4 163.2c6.4 22.4 28.8 41.6 54.4 41.6h32c137.6 0 243.2 28.8 320 83.2s115.2 128 115.2 217.6c0 38.4-6.4 73.6-22.4 99.2-12.8 25.6-35.2 48-60.8 64-6.4 3.2-6.4 6.4-9.6 6.4zM265.6 179.2l38.4 163.2c6.4 22.4 28.8 41.6 54.4 41.6h32c137.6 0 243.2 28.8 320 83.2s115.2 128 115.2 217.6c0 38.4-6.4 73.6-22.4 99.2-12.8 25.6-35.2 48-60.8 64-28.8 16-60.8 28.8-96 35.2-41.6 9.6-86.4 12.8-137.6 12.8h-233.6c-22.4 0-48-19.2-51.2-41.6l-160-675.2c-6.4-22.4 9.6-41.6 35.2-41.6h112c22.4 0 48 19.2 54.4 41.6zM355.2 569.6l35.2 144c6.4 22.4 28.8 41.6 54.4 41.6h35.2c41.6 0 73.6-6.4 96-22.4 22.4-12.8 32-35.2 32-67.2 0-44.8-16-80-51.2-102.4-35.2-25.6-80-35.2-140.8-35.2h-28.8c-22.4 0-35.2 19.2-32 41.6z" />
<glyph unicode="&#xe64a;" d="M620.8 348.8c28.8 25.6 48 67.2 57.6 124.8 12.8-3.2 28.8 9.6 35.2 32s16 57.6 3.2 60.8c-3.2 0-9.6 0-9.6-3.2v60.8c0 67.2-9.6 128-80 156.8-19.2 28.8-19.2 51.2-19.2 51.2-32-28.8-156.8-41.6-156.8-41.6v0c-153.6-16-131.2-70.4-131.2-166.4v-60.8c0 3.2-6.4 3.2-12.8 3.2-12.8-3.2-9.6-38.4-3.2-60.8s25.6-35.2 38.4-32c9.6-60.8 28.8-99.2 54.4-124.8-121.6-44.8-204.8-156.8-204.8-284.8h633.6c0 128-86.4 240-204.8 284.8z" />
<glyph unicode="&#xe64b;" d="M832 544h-64v32c0 35.2-28.8 64-64 64h-448c-35.2 0-64-28.8-64-64v-384c0-35.2 28.8-64 64-64h448c35.2 0 64 28.8 64 64v32h64c35.2 0 64 28.8 64 64v192c0 35.2-28.8 64-64 64zM832 288h-64v192h64v-192zM329.6 812.8c6.4-12.8 12.8-25.6 19.2-38.4s16-28.8 22.4-41.6c3.2-12.8 3.2-25.6-3.2-35.2-3.2-3.2-6.4-6.4-9.6-9.6 0 0 0 0-3.2 0 0 0 0 0-3.2 0 0 0 0 0-3.2 0 0 0 0 0-3.2 0s-3.2-3.2-3.2-3.2 0 0 0 0c0 0 0 0 3.2-3.2 3.2-6.4 6.4-6.4 9.6-9.6s9.6-3.2 16-3.2c6.4 0 16 0 25.6 6.4 28.8 12.8 44.8 48 38.4 80-3.2 22.4-16 44.8-28.8 64-6.4 9.6-16 16-22.4 25.6-6.4 6.4-12.8 12.8-16 22.4s-3.2 19.2-3.2 28.8c0 0 0 0 0 0s0 0 0 0c-9.6 0-19.2-6.4-25.6-16-3.2-6.4-9.6-12.8-9.6-22.4s-3.2-19.2 0-28.8c-3.2-6.4-3.2-9.6 0-16zM524.8 812.8c6.4-12.8 12.8-25.6 19.2-38.4s16-28.8 22.4-41.6c3.2-12.8 3.2-25.6-3.2-35.2-3.2-3.2-6.4-6.4-9.6-9.6 0 0 0 0-3.2 0 0 0 0 0-3.2 0 0 0 0 0-3.2 0 0 0 0 0-3.2 0s-3.2-3.2-3.2-3.2 0 0 0 0c0 0 0 0 3.2-3.2s6.4-3.2 9.6-6.4c3.2-3.2 9.6-3.2 16-3.2s16 0 25.6 6.4c28.8 12.8 44.8 48 38.4 80-3.2 22.4-16 44.8-28.8 64-6.4 9.6-16 16-22.4 25.6-6.4 6.4-12.8 12.8-16 22.4s-3.2 19.2-3.2 28.8c0 0 0 0 0 0s0 0 0 0c-9.6 0-19.2-6.4-25.6-16-3.2-6.4-9.6-12.8-9.6-22.4s-3.2-19.2 0-28.8c-3.2-9.6 0-12.8 0-19.2zM128 96c0-3.2 0-6.4 0-9.6 0-48 169.6-86.4 377.6-86.4s380.8 38.4 380.8 86.4c0 3.2 0 6.4-3.2 9.6h-755.2z" />
<glyph unicode="&#xe64c;" d="M502.4 668.8c6.4 6.4 16 6.4 25.6-3.2l144-153.6c6.4-6.4 6.4-32 0-32h-96v-156.8c0-16-3.2-35.2-19.2-35.2h-86.4c-16 0-19.2 19.2-19.2 35.2v156.8h-92.8c-6.4 0-6.4 25.6 0 32l144 156.8zM672 896h-320c-70.4 0-128-57.6-128-128v-640c0-70.4 57.6-128 128-128h320c70.4 0 128 57.6 128 128v640c0 70.4-57.6 128-128 128zM515.2 38.4c-32 0-57.6 25.6-57.6 57.6s25.6 57.6 57.6 57.6c32 0 57.6-25.6 57.6-57.6 0-35.2-25.6-57.6-57.6-57.6zM736 192h-448v576h448v-576z" />
<glyph unicode="&#xe64d;" d="M896 832h-704c-35.2 0-64-28.8-64-64v-332.8c41.6 32 89.6 48 144 48 131.2 0 240-108.8 240-240 0-16-3.2-35.2-6.4-51.2h390.4c35.2 0 64 28.8 64 64v512c0 35.2-28.8 64-64 64zM832 288c-19.2 0-35.2 9.6-48 22.4-12.8-12.8-28.8-22.4-48-22.4-35.2 0-64 28.8-64 64s28.8 64 64 64c19.2 0 35.2-9.6 48-22.4 12.8 12.8 28.8 22.4 48 22.4 35.2 0 64-28.8 64-64s-28.8-64-64-64zM928 512h-768v160h768v-160zM256 416c-105.6 0-192-86.4-192-192s86.4-192 192-192c105.6 0 192 86.4 192 192s-86.4 192-192 192zM336 128c-12.8-12.8-32-12.8-44.8-3.2l-60.8 64c-6.4 6.4-6.4 22.4-6.4 35.2v96c0 19.2 12.8 32 32 32s32-16 32-32v-99.2l51.2-51.2c12.8-9.6 9.6-32-3.2-41.6z" />
<glyph unicode="&#xe64e;" d="M896 480c0 96-70.4 172.8-160 188.8v99.2c0 70.4-57.6 128-128 128h-256c-70.4 0-128-57.6-128-128v-640c0-70.4 57.6-128 128-128h256c70.4 0 128 57.6 128 128v163.2c89.6 16 160 92.8 160 188.8zM416 832h128v-32h-128v32zM476.8 35.2c-32 0-57.6 25.6-57.6 57.6s25.6 57.6 57.6 57.6 57.6-25.6 57.6-57.6c0-32-25.6-57.6-57.6-57.6zM672 192h-384v576h384v-99.2c-89.6-16-160-92.8-160-188.8s70.4-172.8 160-188.8v-99.2zM800 473.6c0-12.8-9.6-25.6-25.6-25.6h-38.4v-35.2c0-16-12.8-28.8-28.8-28.8h-3.2c-16 0-28.8 12.8-28.8 28.8v35.2h-38.4c-12.8 0-25.6 9.6-25.6 25.6v16c0 12.8 9.6 25.6 25.6 25.6h35.2v35.2c0 16 12.8 28.8 28.8 28.8h3.2c16 0 28.8-12.8 28.8-28.8v-38.4h38.4c12.8 0 25.6-9.6 25.6-25.6v-12.8z" />
<glyph unicode="&#xe64f;" d="M502.4 320l-128 128h-246.4v160h374.4l-96 96 64 64h-310.4c-35.2 0-64-28.8-64-64v-512c0-35.2 28.8-64 64-64h278.4l-64 64 128 128zM864 736h-284.8l-64-64 96-96h284.8v-160h-412.8l128-128-128-128 64-64h316.8c35.2 0 64 28.8 64 64v512c0 35.2-28.8 64-64 64zM800 201.6c-19.2 0-35.2 9.6-48 22.4-12.8-12.8-28.8-22.4-48-22.4-35.2 0-64 28.8-64 64s28.8 64 64 64c19.2 0 35.2-9.6 48-22.4 12.8 12.8 28.8 22.4 48 22.4 35.2 0 64-28.8 64-64s-28.8-64-64-64z" />
<glyph unicode="&#xe650;" d="M864 768h-704c-35.2 0-64-28.8-64-64v-217.6c9.6 12.8 19.2 22.4 32 35.2v86.4h768v-160h-342.4c22.4-38.4 32-83.2 32-131.2 0-73.6-28.8-137.6-73.6-188.8h352c35.2 0 64 28.8 64 64v512c0 35.2-28.8 64-64 64zM800 233.6c-19.2 0-35.2 9.6-48 22.4-12.8-12.8-28.8-22.4-48-22.4-35.2 0-64 28.8-64 64s28.8 64 64 64c19.2 0 35.2-9.6 48-22.4 12.8 12.8 28.8 22.4 48 22.4 35.2 0 64-28.8 64-64s-28.8-64-64-64zM198.4 412.8c51.2 51.2 131.2 57.6 188.8 22.4-19.2-19.2-44.8-41.6-44.8-41.6-16-19.2 3.2-32 12.8-28.8h108.8c6.4 0 9.6 0 9.6 0s3.2 0 9.6 0h22.4c6.4 0 9.6 3.2 9.6 9.6v150.4c0 12.8-12.8 25.6-28.8 12.8 0 0-25.6-25.6-41.6-41.6-89.6 67.2-217.6 57.6-297.6-22.4-48-48-70.4-112-67.2-172.8h76.8c-3.2 38.4 9.6 80 41.6 112zM457.6 320c3.2-41.6-12.8-86.4-44.8-118.4-51.2-51.2-131.2-57.6-188.8-22.4 19.2 22.4 41.6 44.8 41.6 44.8 16 19.2-3.2 32-12.8 28.8h-108.8c-6.4 0-9.6 0-9.6 0s-3.2 0-9.6 0h-19.2c-6.4 0-9.6-3.2-9.6-9.6v-150.4c0-12.8 12.8-25.6 28.8-12.8 0 0 25.6 25.6 41.6 41.6 89.6-67.2 217.6-57.6 297.6 22.4 48 48 70.4 112 67.2 172.8l-73.6 3.2z" />
<glyph unicode="&#xe651;" d="M768 832h-108.8c6.4-19.2 12.8-41.6 12.8-64v-64h160v-480h-160v-96c0-22.4-6.4-44.8-12.8-64h108.8c70.4 0 128 57.6 128 128v512c0 70.4-57.6 128-128 128zM544 288v-96h-384v576h384v-128h64v128c0 70.4-57.6 128-128 128h-256c-70.4 0-128-57.6-128-128v-640c0-70.4 57.6-128 128-128h256c70.4 0 128 57.6 128 128v160h-64zM288 832h128v-32h-128v32zM348.8 35.2c-32 0-57.6 25.6-57.6 57.6s25.6 57.6 57.6 57.6 57.6-25.6 57.6-57.6c0-32-25.6-57.6-57.6-57.6zM790.4 528l-118.4 118.4v-70.4h-192v-96h192v-70.4zM640 448h-192v70.4l-118.4-118.4 118.4-118.4v70.4h192z" />
<glyph unicode="&#xe652;" d="M288 416h-128c-19.2 0-32-12.8-32-32v-320c0-19.2 12.8-32 32-32h128c19.2 0 32 12.8 32 32v320c0 19.2-12.8 32-32 32zM864 640h-128c-19.2 0-32-12.8-32-32v-544c0-19.2 12.8-32 32-32h128c19.2 0 32 12.8 32 32v544c0 19.2-12.8 32-32 32zM576 864h-128c-19.2 0-32-12.8-32-32v-768c0-19.2 12.8-32 32-32h128c19.2 0 32 12.8 32 32v768c0 19.2-12.8 32-32 32z" />
<glyph unicode="&#xe653;" d="M928 128c-9.6 16-19.2 32-28.8 41.6-6.4 6.4-12.8 12.8-16 19.2-3.2 3.2-6.4 6.4-9.6 9.6-16 16-28.8 32-35.2 48-12.8 28.8-12.8 60.8-9.6 92.8 0 22.4 0 118.4-3.2 144 3.2 3.2 9.6 9.6 6.4 16l3.2 112c0 6.4-12.8 19.2-22.4 25.6-12.8 41.6-51.2 70.4-99.2 70.4-3.2 0-9.6 0-12.8 0v32c0 0 0 22.4-9.6 32s-118.4 112-118.4 112-16 12.8-28.8 12.8c-12.8 0-355.2 0-355.2 0-28.8 0-48-19.2-48-48l16-800c0-25.6 22.4-48 35.2-48h422.4c41.6 0 64 22.4 64 48l3.2 80c3.2 0 6.4 0 9.6 0 38.4 0 60.8-57.6 60.8-57.6v0c19.2-41.6 60.8-70.4 102.4-70.4 9.6 0 16 0 22.4 3.2 22.4 6.4 38.4 19.2 48 41.6 16 25.6 16 54.4 3.2 83.2zM576 758.4v-342.4c0-12.8-3.2-32-16-32h-326.4c-16 0-25.6 16-25.6 25.6l-12.8 396.8c0 12.8 12.8 25.6 28.8 25.6 0 0 275.2 0 281.6 0s16-6.4 16-6.4 48-44.8 54.4-48c3.2-6.4 0-19.2 0-19.2zM886.4 67.2c-3.2-6.4-9.6-12.8-19.2-12.8-3.2 0-6.4 0-9.6 0-22.4 0-32 16-48 38.4l-6.4 9.6c-16 25.6-48 80-118.4 80l12.8 489.6h6.4c3.2 0 6.4 0 9.6 0 22.4 0 44.8-12.8 54.4-32h-12.8c-6.4 0-28.8-19.2-28.8-28.8l12.8-112c0-9.6 6.4-16 12.8-16h19.2c0-16 3.2-121.6 3.2-140.8 0-35.2-3.2-73.6 12.8-112 9.6-22.4 25.6-41.6 35.2-54.4v0c12.8-12.8 44.8-51.2 54.4-67.2 12.8-12.8 16-28.8 9.6-41.6z" />
<glyph unicode="&#xe654;" d="M198.4 681.6c-3.2-6.4-6.4-9.6-6.4-16v-368c0-22.4 19.2-41.6 38.4-41.6h60.8c0 0 0 0 0 0l-25.6-92.8c-3.2-12.8 0-19.2 6.4-19.2 3.2 0 9.6 0 16 6.4l128 105.6h204.8l-422.4 425.6zM825.6 278.4c3.2 6.4 6.4 12.8 6.4 19.2v368c0 22.4-19.2 38.4-38.4 38.4h-390.4l422.4-425.6zM204.4 814.232l635.824-635.824-22.626-22.626-635.824 635.824 22.628 22.628z" />
<glyph unicode="&#xe655;" d="M505.6 825.6c19.2 22.4 38.4 12.8 38.4-16v-713.6c0-32-19.2-38.4-41.6-16l-204.8 208h-137.6v352h134.4l211.2 185.6zM656 243.2c-6.4 0-12.8 3.2-19.2 6.4-12.8 9.6-16 32-3.2 44.8 35.2 41.6 51.2 92.8 51.2 147.2 0 57.6-22.4 115.2-60.8 156.8-12.8 12.8-12.8 32 0 44.8s32 12.8 44.8 0c51.2-54.4 80-128 80-201.6 0-67.2-22.4-134.4-67.2-185.6-6.4-9.6-16-12.8-25.6-12.8zM793.6 169.6c-6.4 0-16 3.2-22.4 6.4-12.8 12.8-16 32-3.2 44.8 51.2 60.8 83.2 137.6 83.2 217.6 0 86.4-32 169.6-92.8 233.6-12.8 12.8-12.8 32 0 44.8s32 12.8 44.8 0c73.6-73.6 112-172.8 112-275.2 0-96-35.2-188.8-96-259.2-9.6-9.6-19.2-12.8-25.6-12.8z" />
<glyph unicode="&#xe656;" d="M764.8 896h-377.6l-163.2-160v-697.6c0-19.2 32-38.4 51.2-38.4h486.4c22.4 0 35.2 19.2 35.2 38.4v809.6c3.2 19.2-12.8 48-32 48zM704 96h-384v480h384v-480z" />
<glyph unicode="&#xe657;" d="M512 896c-249.6 0-448-201.6-448-448s201.6-448 448-448c246.4 0 448 201.6 448 448-3.2 246.4-201.6 448-448 448zM732.8 326.4c-9.6-22.4-25.6-41.6-44.8-60.8-6.4-6.4-12.8-12.8-19.2-19.2-25.6-19.2-54.4-35.2-86.4-41.6-22.4-6.4-44.8-9.6-67.2-9.6-9.6 0-16 0-25.6 3.2-12.8 0-25.6 3.2-38.4 6.4-41.6 12.8-80 35.2-112 67.2-12.8 12.8-22.4 25.6-32 41.6-12.8 22.4-25.6 48-32 73.6 0 3.2 0 3.2 0 6.4-3.2 16-6.4 28.8-9.6 44.8s-3.2 32 0 44.8c0 0 0 3.2 0 3.2 0 22.4 3.2 44.8 9.6 64 19.2 83.2 70.4 153.6 124.8 201.6 38.4 32 80 54.4 121.6 70.4 12.8 3.2 25.6 9.6 35.2 12.8 6.4 3.2 16 3.2 22.4 6.4 19.2 6.4 38.4 9.6 57.6 9.6 16 3.2 28.8 3.2 38.4 3.2 6.4 0 12.8 0 12.8-3.2 0 0 0 0 0 0s-3.2-3.2-9.6-6.4c-70.4-25.6-121.6-92.8-121.6-172.8 0-3.2 0-3.2 0-6.4 35.2-6.4 67.2-19.2 96-38.4 25.6-16 44.8-35.2 60.8-57.6 0-3.2 3.2-3.2 3.2-6.4 12.8-16 19.2-35.2 25.6-57.6 6.4-19.2 9.6-41.6 9.6-64 0-3.2 0-6.4 0-9.6 6.4-35.2-3.2-70.4-19.2-105.6z" />
<glyph unicode="&#xe658;" d="M848 336c0 32-6.4 60.8-12.8 89.6-9.6 28.8-19.2 54.4-38.4 76.8-3.2 3.2-3.2 3.2-6.4 6.4-22.4 28.8-51.2 57.6-83.2 76.8-35.2 22.4-80 38.4-128 51.2 0 3.2 0 6.4 0 6.4 0 108.8 70.4 201.6 166.4 236.8 9.6 3.2 12.8 6.4 12.8 9.6 0 0 0 0 0 0 0 3.2-9.6 3.2-19.2 6.4-16 0-32 0-51.2-3.2-22.4-3.2-48-6.4-76.8-12.8-9.6-3.2-19.2-6.4-32-9.6-16-6.4-32-9.6-51.2-16-57.6-22.4-115.2-54.4-166.4-99.2-76.8-67.2-144-160-172.8-272-6.4-28.8-12.8-57.6-12.8-86.4 0-3.2 0-3.2 0-6.4 0-22.4 0-41.6 3.2-64 3.2-19.2 6.4-41.6 9.6-60.8 3.2-3.2 3.2-6.4 3.2-9.6 9.6-35.2 25.6-67.2 44.8-99.2 12.8-19.2 28.8-38.4 44.8-54.4 41.6-41.6 92.8-73.6 150.4-89.6 16-6.4 35.2-9.6 51.2-9.6 12.8 0 22.4-3.2 35.2-3.2 32 0 60.8 3.2 92.8 12.8 41.6 12.8 83.2 32 115.2 57.6 9.6 6.4 19.2 16 28.8 25.6 25.6 25.6 44.8 51.2 57.6 80 22.4 44.8 35.2 96 35.2 147.2 0 6.4 0 9.6 0 12.8z" />
<glyph unicode="&#xe659;" d="M492.8 896c-38.4 0-92.8-22.4-121.6-51.2l-99.2-108.8c-25.6-28.8-48-83.2-48-124.8v-540.8c0-38.4 32-70.4 70.4-73.6h432c38.4 0 70.4 32 73.6 70.4v755.2c0 38.4-32 73.6-70.4 73.6h-236.8zM704 134.4c0-38.4-32-70.4-70.4-70.4h-240c-41.6 0-73.6 32-73.6 70.4v339.2c0 38.4 32 70.4 70.4 70.4h240c38.4 0 70.4-32 70.4-70.4v-339.2zM502.4 124.8v48c-16 3.2-32 6.4-44.8 12.8s-22.4 16-32 25.6l32 38.4c9.6-9.6 16-19.2 25.6-22.4 9.6-6.4 19.2-9.6 32-9.6s19.2 3.2 28.8 6.4c6.4 6.4 9.6 12.8 9.6 22.4s-3.2 16-9.6 22.4c-6.4 6.4-16 9.6-25.6 16-9.6 3.2-19.2 9.6-32 12.8s-19.2 9.6-25.6 16-12.8 12.8-19.2 22.4-6.4 19.2-6.4 32c0 16 3.2 28.8 12.8 38.4 6.4 9.6 16 19.2 28.8 22.4s19.2 6.4 28.8 9.6v57.6h32v-54.4c12.8-3.2 25.6-6.4 38.4-12.8s22.4-16 28.8-25.6l-32-32c-9.6 9.6-16 16-25.6 19.2s-16 6.4-25.6 6.4c-9.6 0-19.2-3.2-25.6-6.4s-9.6-9.6-9.6-19.2c0-3.2 0-9.6 3.2-12.8s6.4-6.4 9.6-9.6 6.4-3.2 9.6-6.4c3.2-3.2 6.4-3.2 9.6-3.2 9.6-3.2 19.2-9.6 32-12.8 9.6-3.2 19.2-9.6 28.8-16s16-12.8 19.2-22.4 9.6-22.4 9.6-35.2c0-16-3.2-28.8-12.8-38.4-6.4-9.6-16-19.2-25.6-25.6s-19.2-9.6-32-9.6v-48h-35.2z" />
<glyph unicode="&#xe65a;" d="M832 595.2v-73.6c28.8-22.4 48-48 48-76.8 0-38.4-16-73.6-80-96v0c-32-12.8-64-22.4-96-25.6v0c-9.6 0-19.2 0-32 0s-22.4 0-32 3.2v92.8l-128-128 128-128v99.2c9.6 0 22.4 0 32 0 150.4 0 272 80 272 185.6 0 60.8-44.8 115.2-112 147.2zM704 230.4v-92.8c0-38.4-28.8-70.4-70.4-70.4h-240c-38.4 0-73.6 32-73.6 70.4v336c0 38.4 35.2 70.4 73.6 70.4h240c38.4 0 70.4-32 70.4-70.4v-115.2c32 3.2 70.4 16 96 28.8l3.2 435.2c0 38.4-32 70.4-70.4 73.6h-233.6c-38.4 0-92.8-22.4-121.6-51.2l-102.4-108.8c-28.8-28.8-51.2-83.2-51.2-124.8v-540.8c0-38.4 32-70.4 70.4-70.4h432c38.4 0 70.4 32 73.6 70.4v176c-28.8-9.6-64-16-96-16z" />
<glyph unicode="&#xe65b;" d="M243.2 64c-44.8 0-80 35.2-80 76.8s35.2 76.8 80 76.8c44.8 0 80-35.2 80-76.8s-35.2-76.8-80-76.8zM243.2 182.4c-22.4 0-44.8-19.2-44.8-41.6s19.2-41.6 44.8-41.6c22.4 0 44.8 19.2 44.8 41.6s-22.4 41.6-44.8 41.6zM531.2 64c-44.8 0-80 35.2-80 76.8s35.2 76.8 80 76.8c44.8 0 80-35.2 80-76.8s-38.4-76.8-80-76.8zM531.2 182.4c-22.4 0-44.8-19.2-44.8-41.6s19.2-41.6 44.8-41.6c22.4 0 44.8 19.2 44.8 41.6-3.2 22.4-22.4 41.6-44.8 41.6zM528 246.4h-323.2c-19.2 0-35.2 22.4-35.2 41.6s16 41.6 35.2 41.6h300.8l240 476.8c6.4 12.8 19.2 25.6 32 25.6h144c22.4 0 38.4-22.4 38.4-41.6s-16-41.6-35.2-41.6h-124.8l-240-476.8c-6.4-12.8-16-25.6-32-25.6zM649.6 675.2l35.2 67.2c-3.2 0-9.6 3.2-12.8 3.2h-569.6c-9.6 0-22.4-6.4-28.8-12.8-6.4-9.6-9.6-19.2-6.4-32l64-281.6c3.2-16 19.2-28.8 35.2-28.8h339.2l35.2 70.4h-51.2v86.4h96l19.2 35.2h-112v92.8h156.8zM294.4 464h-99.2l-19.2 86.4h118.4v-86.4zM294.4 585.6h-128l-19.2 89.6h147.2v-89.6zM457.6 464h-124.8v86.4h124.8v-86.4zM457.6 585.6h-124.8v89.6h124.8v-89.6z" />
<glyph unicode="&#xe65c;" d="M713.6 406.4c9.6 9.6 19.2 28.8 22.4 51.2 6.4 0 12.8 6.4 12.8 12.8 3.2 9.6 0 22.4-3.2 25.6 0 0-9.6 0-9.6 0v25.6c0 25.6 3.2 51.2-25.6 64-6.4 9.6-3.2 22.4-3.2 22.4-12.8-12.8-60.8-16-60.8-16h9.6c-64-6.4-44.8-28.8-44.8-67.2v-25.6c0 0-9.6 0-12.8 0-6.4 0-6.4-16-6.4-25.6 3.2-9.6 6.4-12.8 12.8-12.8 3.2-25.6 9.6-41.6 19.2-54.4-48-19.2-83.2-54.4-83.2-118.4h256c0 64-35.2 99.2-83.2 118.4zM256 608h192v-64h-192v64zM256 480h192v-64h-192v64zM256 352h192v-64h-192v64zM880 800h-736c-44.8 0-80-35.2-80-80v-579.2c0-41.6 35.2-76.8 80-76.8h739.2c44.8 0 80 35.2 80 80v576c-3.2 44.8-38.4 80-83.2 80zM864 160h-704v544h704v-544z" />
<glyph unicode="&#xe65d;" d="M681.6 896c-156.8 0-281.6-128-281.6-281.6 0-32 6.4-67.2 16-99.2l-348.8-348.8v-166.4h166.4v99.2h99.2v99.2h99.2l150.4 150.4c28.8-9.6 64-16 99.2-16 156.8 0 281.6 128 281.6 281.6s-124.8 281.6-281.6 281.6zM764.8 598.4c-57.6 0-99.2 44.8-99.2 99.2s44.8 99.2 99.2 99.2 99.2-41.6 99.2-99.2-41.6-99.2-99.2-99.2z" />
<glyph unicode="&#xe65e;" d="M476.8 16v115.2c-38.4 3.2-70.4 16-102.4 32-28.8 16-54.4 35.2-73.6 60.8l70.4 86.4c19.2-22.4 41.6-41.6 64-54.4s48-19.2 73.6-19.2c25.6 0 48 6.4 64 16 16 12.8 25.6 28.8 25.6 51.2s-6.4 38.4-22.4 51.2c-12.8 12.8-35.2 25.6-60.8 35.2s-48 19.2-70.4 28.8c-22.4 9.6-44.8 22.4-64 35.2s-32 32-44.8 51.2c-12.8 19.2-16 48-16 80 0 35.2 9.6 67.2 28.8 89.6 19.2 25.6 38.4 41.6 64 54.4 22.4 9.6 48 16 67.2 19.2v131.2h76.8v-128c32-3.2 60.8-12.8 89.6-28.8s48-35.2 64-60.8l-70.4-73.6c-19.2 22.4-41.6 38.4-57.6 48-19.2 9.6-38.4 12.8-60.8 12.8-25.6 0-44.8-6.4-60.8-16s-22.4-25.6-22.4-44.8c0-9.6 3.2-19.2 6.4-25.6s12.8-16 19.2-19.2c6.4-6.4 16-9.6 25.6-16 9.6-3.2 16-6.4 25.6-9.6 22.4-9.6 48-19.2 73.6-32 25.6-9.6 44.8-22.4 67.2-38.4 19.2-16 35.2-32 48-54.4s19.2-51.2 19.2-83.2c0-35.2-9.6-67.2-25.6-92.8s-35.2-44.8-60.8-57.6c-22.4-12.8-48-19.2-73.6-25.6v-115.2h-86.4z" />
<glyph unicode="&#xe65f;" d="M742.4 544c9.6-51.2-28.8-102.4-86.4-115.2-12.8 28.8-22.4 60.8-28.8 92.8s-6.4 67.2-6.4 99.2c57.6 9.6 112-25.6 121.6-76.8zM652.8 848c-12.8-3.2-25.6-6.4-35.2-16 0 0 0 0 0 0l-249.6-217.6-134.4-25.6c-76.8-12.8-124.8-86.4-112-163.2s86.4-124.8 163.2-112l134.4 25.6 313.6-115.2c0 0 0 0 0 0 12.8-3.2 25.6-3.2 35.2 0 92.8 16 140.8 169.6 112 342.4-35.2 172.8-134.4 297.6-227.2 281.6zM739.2 294.4c-73.6-12.8-150.4 83.2-172.8 217.6-22.4 131.2 16 249.6 86.4 262.4 73.6 12.8 150.4-83.2 172.8-217.6 22.4-131.2-16-249.6-86.4-262.4zM409.6 297.6l32-176c6.4-41.6-19.2-48-51.2-54.4s-57.6-9.6-67.2 35.2l-32 176c3.2 0 3.2 0 6.4 0l112 19.2z" />
<glyph unicode="&#xe660;" d="M784 710.4c-32 28.8-86.4 25.6-115.2-6.4-28.8-35.2-25.6-86.4 6.4-115.2 51.2-48 83.2-112 83.2-182.4 0-134.4-108.8-243.2-243.2-243.2s-243.2 108.8-243.2 243.2c0 70.4 28.8 134.4 80 182.4 32 28.8 35.2 83.2 6.4 115.2s-83.2 35.2-115.2 6.4c-86.4-76.8-134.4-188.8-134.4-304 0-224 182.4-406.4 406.4-406.4s406.4 182.4 406.4 406.4c0 118.4-48 227.2-137.6 304zM512 512c35.2 0 64 28.8 64 64v256c0 35.2-28.8 64-64 64s-64-28.8-64-64v-256c0-35.2 28.8-64 64-64z" />
<glyph unicode="&#xe661;" d="M662.4 870.4c-233.6 83.2-489.6-38.4-572.8-272s38.4-489.6 272-572.8c233.6-83.2 489.6 38.4 572.8 272 83.2 230.4-38.4 489.6-272 572.8zM700.8 220.8c19.2 32 38.4 70.4 54.4 108.8l112-41.6c-16-38.4-38.4-73.6-67.2-102.4l-99.2 35.2zM323.2 672c-19.2-32-38.4-70.4-54.4-108.8l-112 41.6c16 38.4 38.4 73.6 67.2 102.4l99.2-35.2zM742.4 521.6c-3.2-38.4-12.8-80-25.6-118.4l-169.6 60.8 41.6 112 153.6-54.4zM611.2 633.6l57.6 166.4c12.8-9.6 22.4-19.2 32-32 16-25.6 32-57.6 38.4-96 6.4-25.6 6.4-54.4 6.4-83.2l-134.4 44.8zM476.8 764.8c28.8 25.6 60.8 41.6 89.6 51.2 16 3.2 32 6.4 44.8 6.4l-57.6-163.2-137.6 44.8c19.2 22.4 41.6 41.6 60.8 60.8zM534.4 598.4l-41.6-112-166.4 57.6c16 38.4 35.2 73.6 54.4 105.6l153.6-51.2zM124.8 425.6c-3.2 41.6 3.2 83.2 12.8 121.6l112-41.6c-12.8-38.4-22.4-80-25.6-118.4l-99.2 38.4zM304 489.6l169.6-60.8-41.6-112-153.6 54.4c6.4 38.4 16 76.8 25.6 118.4zM412.8 259.2l-57.6-163.2c-12.8 9.6-22.4 19.2-32 32-16 25.6-32 57.6-38.4 96-6.4 25.6-6.4 54.4-6.4 83.2l134.4-48zM547.2 131.2c-28.8-25.6-60.8-41.6-89.6-51.2-16-3.2-32-6.4-44.8-6.4l57.6 163.2 137.6-48c-22.4-19.2-41.6-41.6-60.8-57.6zM489.6 297.6l41.6 112 169.6-60.8c-16-38.4-35.2-73.6-54.4-105.6l-156.8 54.4zM774.4 384c12.8 38.4 22.4 80 25.6 118.4l99.2-35.2c3.2-41.6-3.2-83.2-12.8-121.6l-112 38.4zM889.6 534.4l-83.2 28.8c3.2 57.6-3.2 112-19.2 156.8 32-32 57.6-67.2 76.8-108.8 9.6-22.4 19.2-51.2 25.6-76.8zM345.6 796.8c41.6 19.2 83.2 32 128 35.2-41.6-25.6-80-64-115.2-108.8l-83.2 32c19.2 16 44.8 32 70.4 41.6zM134.4 361.6l83.2-28.8c-3.2-57.6 3.2-112 19.2-156.8-32 32-57.6 67.2-76.8 108.8-12.8 22.4-19.2 48-25.6 76.8zM678.4 96c-41.6-19.2-83.2-32-128-35.2 41.6 25.6 80 64 115.2 108.8l83.2-28.8c-22.4-19.2-44.8-32-70.4-44.8z" />
<glyph unicode="&#xe662;" d="M806.4 352h-102.4v192h-384v-192h-99.2c-35.2 0-44.8-22.4-19.2-48l268.8-284.8c25.6-25.6 67.2-25.6 89.6 0l268.8 284.8c22.4 25.6 12.8 48-22.4 48zM704 864c0 19.2-12.8 32-32 32h-320c-19.2 0-32-12.8-32-32v-32h384v32zM320 768h384v-128h-384v128z" />
<glyph unicode="&#xe663;" d="M336 44.8c-16 16-22.4 35.2-22.4 57.6 3.2 73.6-60.8 140.8-134.4 137.6-41.6 0-76.8 35.2-76.8 76.8s35.2 76.8 76.8 76.8c76.8 0 150.4-28.8 208-86.4s86.4-134.4 86.4-214.4c0-41.6-38.4-76.8-80-76.8-25.6 6.4-44.8 12.8-57.6 28.8zM121.6 502.4c-12.8 12.8-22.4 32-22.4 54.4 0 41.6 35.2 76.8 76.8 76.8 144 0 278.4-54.4 380.8-156.8 99.2-99.2 156.8-233.6 156.8-377.6 0-41.6-35.2-76.8-76.8-76.8s-76.8 35.2-76.8 76.8c0 102.4-38.4 195.2-112 268.8s-169.6 112-272 112c-22.4 0-41.6 9.6-54.4 22.4zM121.6 745.6c-12.8 16-22.4 35.2-22.4 54.4 0 41.6 35.2 76.8 76.8 76.8 208 3.2 406.4-76.8 553.6-224s227.2-342.4 227.2-550.4c0-41.6-35.2-76.8-76.8-76.8s-76.8 35.2-76.8 76.8c0 166.4-64 323.2-182.4 438.4-118.4 118.4-275.2 182.4-441.6 182.4-22.4 0-41.6 9.6-57.6 22.4z" />
<glyph unicode="&#xe664;" d="M316.8 185.6c-12.8 0-22.4 0-32 3.2s-16 3.2-25.6 6.4c-6.4 3.2-12.8 6.4-19.2 9.6s-9.6 6.4-16 12.8l25.6 48c6.4-6.4 16-12.8 28.8-19.2s22.4-6.4 32-6.4c9.6 0 19.2 3.2 22.4 6.4s9.6 9.6 9.6 19.2c0 9.6-3.2 16-9.6 22.4s-19.2 6.4-32 6.4c0 0-3.2 0-6.4 0s-9.6 0-16 0v41.6c6.4 6.4 12.8 16 19.2 22.4s16 16 22.4 19.2h-76.8v51.2h156.8v-51.2c-12.8-6.4-22.4-12.8-32-22.4s-19.2-16-25.6-25.6c22.4 0 38.4-9.6 51.2-19.2 12.8-12.8 16-28.8 16-51.2 0-12.8-3.2-22.4-6.4-32s-12.8-16-19.2-22.4-22.4-12.8-32-12.8c-12.8-3.2-22.4-6.4-35.2-6.4zM518.4 185.6c-12.8 0-22.4 3.2-35.2 6.4-9.6 3.2-19.2 9.6-28.8 19.2-6.4 9.6-12.8 19.2-19.2 32-3.2 12.8-6.4 25.6-6.4 41.6 0 19.2 3.2 35.2 6.4 51.2 3.2 6.4 3.2 16 6.4 19.2 3.2 6.4 6.4 9.6 9.6 16 3.2 3.2 6.4 9.6 9.6 12.8s6.4 6.4 9.6 9.6c9.6 9.6 19.2 16 32 22.4s25.6 9.6 38.4 12.8c9.6 3.2 19.2 3.2 25.6 6.4l12.8-44.8c-16 0-28.8-3.2-41.6-9.6s-22.4-12.8-28.8-19.2c-6.4-6.4-9.6-12.8-9.6-19.2 3.2 3.2 9.6 3.2 12.8 6.4 6.4 0 12.8 3.2 19.2 3.2 16 0 28.8-3.2 38.4-12.8 6.4-3.2 9.6-9.6 12.8-16s6.4-12.8 9.6-19.2 3.2-12.8 6.4-19.2 0-12.8 0-16c0-19.2-3.2-32-12.8-48-6.4-6.4-9.6-12.8-16-19.2-6.4-3.2-12.8-9.6-19.2-9.6-6.4-3.2-12.8-3.2-19.2-6.4-3.2 0-9.6 0-12.8 0zM518.4 236.8c6.4 0 12.8 3.2 19.2 9.6s6.4 12.8 6.4 22.4c0 9.6-3.2 19.2-6.4 25.6s-9.6 9.6-19.2 9.6c-6.4 0-9.6 0-12.8-3.2-3.2 0-6.4-3.2-9.6-3.2-3.2-6.4-3.2-12.8-3.2-19.2 0-12.8 3.2-25.6 6.4-28.8 6.4-9.6 12.8-12.8 19.2-12.8zM704 185.6c-16 0-32 3.2-44.8 6.4s-22.4 6.4-28.8 9.6c-6.4 3.2-9.6 6.4-16 9.6l22.4 51.2c6.4-6.4 16-12.8 25.6-16s19.2-6.4 28.8-6.4c6.4 0 12.8 0 16 3.2s9.6 3.2 12.8 6.4c3.2 3.2 6.4 6.4 6.4 9.6s3.2 6.4 0 9.6 0 9.6-6.4 16c-3.2 3.2-9.6 6.4-16 9.6s-12.8 3.2-19.2 6.4c-6.4 0-12.8 0-19.2 0s-12.8 0-19.2 0c-6.4 0-12.8 0-16-3.2v131.2h144v-51.2h-89.6v-28.8c22.4 0 41.6-3.2 57.6-9.6s25.6-16 32-28.8c6.4-12.8 9.6-25.6 9.6-41.6 0-12.8-3.2-25.6-6.4-35.2s-12.8-19.2-19.2-25.6-16-12.8-28.8-16-12.8-6.4-25.6-6.4zM288 742.4v0c25.6 0 44.8 19.2 44.8 41.6v70.4c0 22.4-19.2 41.6-41.6 41.6h-3.2c-22.4 0-41.6-19.2-41.6-41.6v-67.2c0-25.6 19.2-44.8 41.6-44.8zM723.2 742.4v0c25.6 0 44.8 19.2 44.8 41.6v70.4c0 22.4-19.2 41.6-41.6 41.6h-3.2c-22.4 0-41.6-19.2-41.6-41.6v-67.2c0-25.6 19.2-44.8 41.6-44.8zM848 800h-38.4v-12.8c0-48-38.4-83.2-83.2-83.2h-3.2c-48 0-83.2 38.4-83.2 83.2v12.8h-265.6v-12.8c0-48-38.4-83.2-83.2-83.2h-3.2c-48 0-83.2 38.4-83.2 83.2v12.8h-28.8c-64 0-112-51.2-112-112v-576c0-60.8 48-112 112-112h675.2c60.8 0 112 51.2 112 112v576c-3.2 60.8-51.2 112-115.2 112zM896 121.6c0-32-25.6-57.6-57.6-57.6h-652.8c-32 0-57.6 25.6-57.6 57.6v454.4h768v-454.4z" />
<glyph unicode="&#xe665;" d="M832 544h-224v224c0 54.4-41.6 96-96 96s-96-41.6-96-96v-224h-224c-54.4 0-96-41.6-96-96s41.6-96 96-96h224v-224c0-54.4 41.6-96 96-96s96 41.6 96 96v224h224c54.4 0 96 41.6 96 96s-41.6 96-96 96z" />
<glyph unicode="&#xe666;" d="M672 672c-105.6 0-192-86.4-192-192s86.4-192 192-192 192 86.4 192 192c0 105.6-86.4 192-192 192zM729.6 403.2c-6.4-9.6-12.8-16-19.2-19.2s-16-6.4-25.6-9.6v-38.4h-25.6v38.4c-12.8 0-22.4 6.4-35.2 9.6-9.6 6.4-19.2 12.8-25.6 19.2l22.4 28.8c6.4-6.4 12.8-12.8 19.2-19.2 6.4-3.2 16-6.4 22.4-6.4 9.6 0 16 3.2 22.4 6.4s6.4 9.6 6.4 16c0 6.4-3.2 12.8-6.4 16s-12.8 6.4-19.2 12.8c-9.6 3.2-16 6.4-22.4 9.6s-16 6.4-19.2 12.8c-6.4 3.2-9.6 9.6-16 16 0 9.6 0 19.2 0 28.8 0 12.8 3.2 22.4 9.6 28.8 6.4 9.6 12.8 12.8 22.4 19.2 6.4 3.2 16 6.4 22.4 6.4v44.8h25.6v-41.6c9.6 0 19.2-3.2 28.8-9.6s16-12.8 22.4-19.2l-22.4-25.6c-6.4 6.4-12.8 12.8-19.2 16s-12.8 3.2-19.2 3.2c-9.6 0-16-3.2-19.2-6.4-6.4-3.2-6.4-9.6-6.4-16 0-3.2 0-6.4 3.2-9.6s3.2-6.4 6.4-6.4 6.4-3.2 9.6-6.4c3.2 0 6.4-3.2 6.4-3.2 6.4-3.2 16-6.4 22.4-9.6s16-6.4 22.4-12.8c6.4-6.4 12.8-9.6 16-19.2 3.2-6.4 6.4-16 6.4-28.8-9.6-6.4-9.6-16-16-25.6zM672 256c-9.6 0-22.4 0-32 3.2v-67.2h-384v576h384v-67.2c9.6 3.2 22.4 3.2 32 3.2s22.4 0 32-3.2v67.2c0 70.4-57.6 128-128 128h-256c-70.4 0-128-57.6-128-128v-640c0-70.4 57.6-128 128-128h256c70.4 0 128 57.6 128 128v131.2c-9.6-3.2-22.4-3.2-32-3.2zM384 832h128v-32h-128v32zM444.8 35.2c-32 0-57.6 25.6-57.6 57.6s25.6 57.6 57.6 57.6 57.6-25.6 57.6-57.6c0-32-25.6-57.6-57.6-57.6z" />
<glyph unicode="&#xe667;" d="M576 896h-256c-70.4 0-128-57.6-128-128v-640c0-70.4 57.6-128 128-128h256c70.4 0 128 57.6 128 128v128h-64v-64h-384v576h384v-96h64v96c0 70.4-57.6 128-128 128zM444.8 147.2c32 0 57.6-25.6 57.6-57.6s-25.6-57.6-57.6-57.6-57.6 25.6-57.6 57.6c3.2 32 28.8 57.6 57.6 57.6zM512 800h-128v32h128v-32zM576 624c0-9.6-6.4-16-16-16v0c-9.6 0-16 6.4-16 16v32c0 9.6 6.4 16 16 16v0c9.6 0 16-6.4 16-16v-32zM800 624c0-9.6-6.4-16-16-16v0c-9.6 0-16 6.4-16 16v32c0 9.6 6.4 16 16 16v0c9.6 0 16-6.4 16-16v-32zM816 640v-16c0-19.2-16-32-32-32s-32 12.8-32 32v16h-160v-16c0-19.2-16-32-32-32s-32 12.8-32 32v16c-25.6 0-48-22.4-48-48v-256c0-25.6 22.4-48 48-48h288c25.6 0 48 22.4 48 48v256c0 25.6-22.4 48-48 48zM726.4 384c-6.4-6.4-12.8-12.8-19.2-16s-16-6.4-22.4-6.4v-35.2h-25.6v35.2c-12.8 0-22.4 3.2-32 9.6s-16 9.6-22.4 19.2l22.4 25.6c6.4-6.4 12.8-12.8 19.2-16s16-6.4 22.4-6.4c9.6 0 16 3.2 19.2 6.4 6.4 3.2 6.4 9.6 6.4 16s-3.2 12.8-6.4 16c-3.2 3.2-9.6 6.4-19.2 9.6-6.4 3.2-16 6.4-22.4 9.6s-12.8 6.4-19.2 9.6c-6.4 3.2-9.6 9.6-12.8 16s-6.4 16-6.4 25.6c0 12.8 3.2 19.2 9.6 28.8 6.4 6.4 12.8 12.8 19.2 16s16 6.4 22.4 6.4v41.6h25.6v-41.6c9.6 0 19.2-3.2 28.8-9.6s16-9.6 19.2-19.2l-22.4-22.4c-6.4 6.4-12.8 12.8-19.2 16s-12.8 3.2-19.2 3.2c-9.6 0-12.8-3.2-19.2-6.4-3.2-3.2-6.4-9.6-6.4-12.8s0-6.4 3.2-9.6c0-3.2 3.2-3.2 6.4-6.4s6.4-3.2 6.4-3.2 6.4-3.2 6.4-3.2c6.4-3.2 16-6.4 22.4-9.6s16-6.4 19.2-12.8c6.4-3.2 9.6-9.6 16-16 3.2-6.4 6.4-16 6.4-25.6 3.2-12.8 0-22.4-6.4-32z" />
<glyph unicode="&#xe668;" d="M486.4 3.2l70.4 44.8-73.6 41.6zM594.942 78.904l-105.986 59.62 271.43 482.518 105.986-59.62-271.43-482.518zM704 64c19.2 0 32 12.8 32 32v140.8l-96-172.8h64zM886.4 627.2c-3.2 16-16 28.8-28.8 38.4s-32 9.6-48 6.4c-6.4-3.2-16-6.4-22.4-9.6l99.2-54.4c3.2 3.2 3.2 12.8 0 19.2zM732.8 662.4c0 3.2 3.2 3.2 3.2 6.4v195.2c0 19.2-12.8 32-32 32h-544c-19.2 0-32-12.8-32-32v-768c0-19.2 12.8-32 32-32h275.2c0 0 0 70.4 3.2 76.8l294.4 521.6c0 0 0 0 0 0zM544 480h-320v64h320v-64zM640 608h-416v64h416v-64zM640 736h-416v64h416v-64z" />
<glyph unicode="&#xe669;" d="M883.2 528c-25.6 38.4-73.6 67.2-80 115.2-9.6 70.4-60.8 118.4-70.4 192-32-41.6-35.2-80-38.4-118.4-3.2-22.4-12.8-57.6-32-51.2-32 9.6-60.8 35.2-89.6 57.6-19.2 16-3.2 35.2 9.6 51.2s6.4 41.6-3.2 38.4c-41.6-25.6-80 32-121.6-6.4-32-32-54.4-80-121.6-57.6-12.8 3.2-70.4-51.2-80-86.4-12.8-51.2-44.8-64-83.2-80-112-44.8-118.4-96-64-201.6 19.2-38.4 48-76.8 38.4-124.8-6.4-35.2 28.8-41.6 38.4-35.2 44.8 28.8 102.4 25.6 140.8 60.8 73.6 64 156.8 57.6 214.4-16 12.8-16 19.2-19.2 28.8-3.2 3.2-3.2 6.4-6.4 9.6-9.6 22.4-22.4 44.8-38.4 57.6-70.4 22.4-51.2 163.2-60.8 192-12.8s64 89.6 86.4 140.8c38.4 80 16 147.2-32 217.6zM688 112l16-64 38.4-16 44.8 73.6-51.2-6.4z" />
<glyph unicode="&#xe66a;" d="M316.8 387.2c0-53.020-42.98-96-96-96s-96 42.98-96 96c0 53.020 42.98 96 96 96s96-42.98 96-96zM604.8 387.2c0-53.020-42.98-96-96-96s-96 42.98-96 96c0 53.020 42.98 96 96 96s96-42.98 96-96zM892.8 387.2c0-53.020-42.98-96-96-96s-96 42.98-96 96c0 53.020 42.98 96 96 96s96-42.98 96-96z" />
<glyph unicode="&#xe66b;" d="M192 428.8c-48 16-54.4 19.2-54.4 32s6.4 16 35.2 16c22.4 0 51.2-6.4 76.8-22.4l22.4 57.6c-28.8 16-64 25.6-96 25.6-60.8 0-105.6-22.4-105.6-76.8s41.6-70.4 102.4-89.6c28.8-9.6 38.4-16 38.4-25.6 0-12.8-9.6-19.2-35.2-19.2-32 0-64 9.6-89.6 22.4l-22.4-54.4c28.8-19.2 67.2-32 108.8-32 57.6 0 105.6 22.4 105.6 83.2 3.2 51.2-38.4 70.4-86.4 83.2zM598.4 537.6c-44.8 0-64-16-83.2-32-19.2 22.4-38.4 32-73.6 32-28.8 0-44.8-9.6-57.6-22.4v16h-70.4v-262.4h70.4v144c0 44.8 12.8 60.8 41.6 60.8s41.6-12.8 41.6-60.8v-140.8h70.4v144c0 44.8 12.8 60.8 41.6 60.8s41.6-12.8 41.6-60.8v-140.8h70.4v140.8c0 73.6-25.6 121.6-92.8 121.6zM864 537.6c-28.8 0-48-9.6-60.8-22.4v118.4l-70.4-35.2v-329.6h67.2v144c0 44.8 16 60.8 44.8 60.8s44.8-12.8 44.8-60.8v-140.8h70.4v144c0 73.6-28.8 121.6-96 121.6z" />
<glyph unicode="&#xe66c;" d="M896 832h-704c-35.2 0-64-28.8-64-64v-332.8c41.6 32 89.6 48 144 48 131.2 0 240-108.8 240-240 0-16-3.2-35.2-6.4-51.2h390.4c35.2 0 64 28.8 64 64v512c0 35.2-28.8 64-64 64zM832 288c-19.2 0-35.2 9.6-48 22.4-12.8-12.8-28.8-22.4-48-22.4-35.2 0-64 28.8-64 64s28.8 64 64 64c19.2 0 35.2-9.6 48-22.4 12.8 12.8 28.8 22.4 48 22.4 35.2 0 64-28.8 64-64s-28.8-64-64-64zM928 512h-768v160h768v-160zM272 416c-96 0-176-80-176-176s80-176 176-176c96 0 176 80 176 176 0 99.2-80 176-176 176zM364.8 179.2l-38.4-38.4-57.6 57.6-57.6-57.6-38.4 38.4 57.6 57.6-57.6 57.6 38.4 38.4 57.6-57.6 57.6 57.6 38.4-38.4-57.6-57.6 57.6-57.6z" />
<glyph unicode="&#xe66d;" d="M832 704v-608h-579.2c-25.6 0-48 22.4-48 48s22.4 48 48 48h515.2v640h-515.2c-51.2 0-92.8-41.6-92.8-92.8v-582.4c0-51.2 41.6-92.8 92.8-92.8h611.2v640h-32z" />
<glyph unicode="&#xe66e;" d="M803.2 873.6c-54.4 0-102.4-28.8-124.8-73.6h-332.8c-25.6 44.8-70.4 73.6-124.8 73.6-80 0-144-64-144-144 0-118.4 83.2-188.8 163.2-256 35.2-28.8 67.2-57.6 92.8-89.6 28.8-73.6 64-134.4 105.6-166.4 112-121.6-147.2-105.6-147.2-214.4h441.6c0 105.6-249.6 92.8-153.6 204.8 44.8 32 83.2 96 115.2 176 25.6 32 60.8 60.8 92.8 89.6 80 67.2 163.2 137.6 163.2 256-3.2 80-67.2 144-147.2 144zM284.8 528c-73.6 64-137.6 115.2-137.6 201.6 0 38.4 32 70.4 73.6 70.4 12.8 0 25.6-3.2 35.2-9.6 0-89.6 12.8-182.4 32-268.8 0 3.2-3.2 3.2-3.2 6.4zM739.2 528c0 0-3.2-3.2-3.2-3.2 19.2 86.4 32 179.2 32 268.8 9.6 3.2 22.4 6.4 35.2 6.4 41.6 0 73.6-32 73.6-73.6 0-83.2-64-137.6-137.6-198.4z" />
<glyph unicode="&#xe66f;" d="M256 672h512v-64h-512v64zM576 544h192v-64h-192v64zM256 544h256v-256h-256v256zM576 448h192v-64h-192v64zM576 352h128v-64h-128v64zM960 672c0 70.4-57.6 128-128 128h-640c-70.4 0-128-57.6-128-128v-384c0-70.4 57.6-128 128-128h640c70.4 0 128 57.6 128 128v384zM832 736v-512h-640v512h640z" />
<glyph unicode="&#xe670;" d="M864 640v128h-800v-614.4c0-32 25.6-57.6 57.6-57.6h742.4v544zM128 160v544h672v-544h-672zM192 608h544v-64h-544v64zM512 480h224v-64h-224v64zM192 480h256v-256h-256v256zM512 384h224v-64h-224v64zM512 288h128v-64h-128v64zM896 864h-704c-35.2 0-64-28.8-64-64h768v-672c35.2 0 64 28.8 64 64v608c0 35.2-28.8 64-64 64z" />
<glyph unicode="&#xe671;" d="M681.6 864c0 0-67.2-67.2-140.8-92.8-550.4-198.4-316.8-585.6-310.4-585.6 0 0 32 54.4 73.6 83.2 262.4 192 316.8 416 316.8 416s-57.6-268.8-294.4-435.2c-51.2-38.4-86.4-128-102.4-217.6 0 0 35.2 16 51.2 19.2 6.4 41.6 19.2 80 41.6 112 326.4-38.4 435.2 224 448 316.8 35.2 217.6-83.2 384-83.2 384z" />
<glyph unicode="&#xe672;" d="M320 800h-128c-19.2 0-32-12.8-32-32v-128c0-19.2 12.8-32 32-32h128c19.2 0 32 12.8 32 32v128c0 19.2-12.8 32-32 32zM576 800h-128c-19.2 0-32-12.8-32-32v-128c0-19.2 12.8-32 32-32h128c19.2 0 32 12.8 32 32v128c0 19.2-12.8 32-32 32zM832 800h-128c-19.2 0-32-12.8-32-32v-128c0-19.2 12.8-32 32-32h128c19.2 0 32 12.8 32 32v128c0 19.2-12.8 32-32 32zM320 544h-128c-19.2 0-32-12.8-32-32v-128c0-19.2 12.8-32 32-32h128c19.2 0 32 12.8 32 32v128c0 19.2-12.8 32-32 32zM576 544h-128c-19.2 0-32-12.8-32-32v-128c0-19.2 12.8-32 32-32h128c19.2 0 32 12.8 32 32v128c0 19.2-12.8 32-32 32zM832 544h-128c-19.2 0-32-12.8-32-32v-128c0-19.2 12.8-32 32-32h128c19.2 0 32 12.8 32 32v128c0 19.2-12.8 32-32 32zM320 288h-128c-19.2 0-32-12.8-32-32v-128c0-19.2 12.8-32 32-32h128c19.2 0 32 12.8 32 32v128c0 19.2-12.8 32-32 32zM576 288h-128c-19.2 0-32-12.8-32-32v-128c0-19.2 12.8-32 32-32h128c19.2 0 32 12.8 32 32v128c0 19.2-12.8 32-32 32zM832 288h-128c-19.2 0-32-12.8-32-32v-128c0-19.2 12.8-32 32-32h128c19.2 0 32 12.8 32 32v128c0 19.2-12.8 32-32 32z" />
<glyph unicode="&#xe673;" d="M716.8 896l-28.8-73.6 179.2-124.8zM633.6 800l38.4 96h-480v-896h672v646.4l-230.4 153.6zM348.8 364.8c9.6-12.8 22.4-16 38.4-16 9.6 0 22.4 3.2 28.8 6.4 9.6 3.2 12.8 6.4 16 9.6l12.8-32c-3.2-3.2-6.4-3.2-9.6-6.4-6.4-3.2-12.8-6.4-19.2-6.4-6.4-3.2-12.8-3.2-19.2-3.2s-12.8 0-19.2 0-22.4 3.2-35.2 6.4c-9.6 3.2-19.2 9.6-25.6 19.2s-12.8 19.2-16 32-6.4 28.8-6.4 44.8c0 19.2 3.2 32 6.4 44.8 6.4 12.8 9.6 22.4 19.2 32 6.4 9.6 16 16 25.6 19.2s19.2 6.4 32 6.4c9.6 0 19.2 0 25.6-3.2s12.8-6.4 19.2-9.6c6.4-3.2 9.6-6.4 12.8-12.8 3.2-3.2 6.4-6.4 6.4-9.6l-28.8-22.4c0 3.2-3.2 3.2-3.2 6.4-3.2 3.2-3.2 6.4-6.4 6.4-3.2 3.2-6.4 3.2-9.6 6.4s-9.6 3.2-16 3.2c-6.4 0-12.8 0-19.2-3.2s-9.6-6.4-16-12.8c-3.2-6.4-6.4-12.8-9.6-22.4s-3.2-19.2-3.2-32c3.2-22.4 9.6-38.4 19.2-51.2zM582.4 336c-6.4-9.6-16-16-28.8-19.2-9.6-3.2-19.2-3.2-28.8-3.2s-16 0-25.6 3.2c-6.4 0-12.8 3.2-19.2 6.4s-9.6 3.2-12.8 6.4c-3.2 3.2-6.4 3.2-9.6 6.4l16 32c3.2 0 3.2-3.2 6.4-6.4s6.4-3.2 9.6-6.4c3.2-3.2 9.6-3.2 16-6.4 6.4 0 12.8-3.2 19.2-3.2 9.6 0 16 3.2 22.4 6.4s9.6 9.6 9.6 16c0 9.6-3.2 16-6.4 19.2-6.4 3.2-16 9.6-35.2 16-12.8 3.2-25.6 9.6-35.2 16-3.2 3.2-6.4 6.4-9.6 9.6s-3.2 6.4-6.4 9.6c0 3.2-3.2 6.4-3.2 9.6s0 6.4 0 9.6c0 12.8 3.2 22.4 9.6 32s12.8 16 25.6 19.2c9.6 3.2 22.4 6.4 32 6.4s16 0 22.4-3.2c6.4 0 12.8-3.2 19.2-6.4s9.6-6.4 16-9.6 6.4-6.4 9.6-9.6l-19.2-25.6c-3.2 3.2-6.4 6.4-9.6 6.4-3.2 3.2-9.6 6.4-12.8 6.4-3.2 3.2-9.6 3.2-12.8 3.2s-6.4 0-9.6 0c-9.6 0-16-3.2-22.4-6.4-3.2-3.2-6.4-9.6-6.4-16s3.2-12.8 6.4-16c3.2-3.2 6.4-3.2 12.8-6.4s12.8-6.4 19.2-6.4c19.2-6.4 32-12.8 38.4-19.2 9.6-6.4 12.8-16 16-22.4 0-3.2 3.2-6.4 3.2-12.8s0-6.4 0-9.6c-3.2-3.2-6.4-16-16-25.6zM713.6 320h-35.2l-73.6 192h41.6l51.2-147.2 48 147.2h38.4l-70.4-192z" />
<glyph unicode="&#xe674;" d="M700.8 896l-28.8-73.6 179.2-124.8zM524.8 467.2c-3.2 3.2-9.6 6.4-16 6.4s-12.8 3.2-19.2 3.2h-16v-128h16c12.8 0 25.6 3.2 35.2 6.4 9.6 6.4 16 12.8 19.2 22.4s6.4 22.4 6.4 32c0 12.8-3.2 22.4-6.4 32-6.4 12.8-12.8 19.2-19.2 25.6zM355.2 473.6c-6.4 3.2-16 3.2-22.4 3.2h-25.6v-57.6h22.4c6.4 0 9.6 0 16 0 3.2 0 9.6 3.2 12.8 3.2 6.4 3.2 9.6 6.4 12.8 9.6s3.2 9.6 3.2 16c0 6.4 0 9.6-3.2 16s-12.8 6.4-16 9.6zM620.8 796.8l32 96h-467.2v-896h672v646.4l-236.8 153.6zM403.2 428.8c-3.2-6.4-6.4-12.8-9.6-19.2s-6.4-9.6-12.8-12.8-6.4-6.4-9.6-6.4c-6.4-3.2-12.8-3.2-19.2-6.4-6.4 0-12.8-3.2-19.2-3.2h-25.6v-70.4h-38.4v201.6h60.8c9.6 0 19.2 0 25.6-3.2 9.6 0 16-3.2 22.4-6.4 9.6-3.2 16-12.8 22.4-22.4 3.2-9.6 6.4-19.2 6.4-28.8 3.2-9.6 0-16-3.2-22.4zM582.4 377.6c-3.2-9.6-6.4-19.2-12.8-28.8-6.4-6.4-9.6-12.8-16-19.2s-9.6-9.6-16-9.6c-12.8-6.4-28.8-9.6-48-9.6h-57.6v201.6h57.6c6.4 0 16 0 22.4-3.2 9.6 0 16-3.2 25.6-6.4 12.8-6.4 22.4-16 32-28.8 6.4-12.8 12.8-22.4 16-35.2 0-6.4 3.2-9.6 3.2-16 0-3.2 0-9.6 0-12.8 0-9.6-3.2-19.2-6.4-32zM752 476.8h-89.6v-48h73.6v-35.2h-73.6v-80h-38.4v198.4h128v-35.2z" />
<glyph unicode="&#xe675;" d="M819.2 489.6c-153.6-185.6-579.2-176-684.8 64-6.4 12.8-9.6 28.8-12.8 44.8-9.6 54.4 6.4 115.2 38.4 163.2 73.6 102.4 208 128 326.4 134.4 0 0 0 0 0 0 9.6 0 19.2 0 28.8 0 0-64 0-128 0-192-99.2-6.4-201.6-3.2-288-64-16-9.6-28.8-22.4-38.4-41.6-6.4-12.8-6.4-28.8-3.2-41.6 3.2-22.4 16-38.4 32-57.6 70.4-80 201.6-118.4 307.2-105.6 28.8 3.2 54.4 9.6 80 22.4 19.2 9.6 35.2 19.2 51.2 32s28.8 28.8 41.6 48c16 25.6 28.8 51.2 32 80 16 76.8 6.4 163.2-44.8 227.2-16 19.2-35.2 35.2-57.6 51.2-28.8 16-57.6 28.8-89.6 35.2-6.4 0-3.2 6.4-3.2 9.6 102.4-6.4 211.2-41.6 281.6-121.6 12.8-16 25.6-32 35.2-51.2s16-38.4 19.2-60.8c3.2-12.8 3.2-25.6 3.2-41.6 0-19.2-3.2-38.4-9.6-57.6-9.6-28.8-25.6-54.4-44.8-76.8-6.4-6.4 6.4 6.4 0 0zM630.4 304c0 9.6 0 16 0 25.6-38.4 0-76.8 0-115.2 0 0-48 0-96 0-144 38.4 0 76.8 0 112 0 0 9.6 0 16 0 25.6-25.6 0-48 0-73.6 0 0 12.8 0 22.4 0 35.2 22.4 0 48 0 70.4 0 0 9.6 0 16 0 25.6-22.4 0-48 0-70.4 0 0 12.8 0 22.4 0 35.2 28.8-3.2 54.4-3.2 76.8-3.2zM649.6 70.4c3.2-12.8 0-22.4-3.2-32-6.4-12.8-16-22.4-28.8-28.8s-28.8-6.4-41.6-6.4c-12.8 0-25.6 3.2-35.2 12.8 0 0 0 0-3.2 0 0-3.2 0-6.4 0-9.6-12.8 0-28.8 0-41.6 0 0 51.2 0 102.4 0 153.6 12.8 0 25.6 0 41.6 0 0-19.2 0-41.6 0-64 19.2 16 38.4 19.2 60.8 16 16 0 28.8-6.4 38.4-19.2 9.6-3.2 12.8-12.8 12.8-22.4zM598.4 80c-9.6 6.4-19.2 9.6-32 9.6s-32-16-28.8-32c0-9.6 3.2-16 9.6-22.4 12.8-9.6 32-12.8 44.8-6.4 19.2 12.8 25.6 38.4 6.4 51.2zM704 291.2c12.8 9.6 25.6 12.8 41.6 12.8 6.4 0 12.8 0 19.2 0 9.6 0 19.2-3.2 28.8-3.2 0 6.4 3.2 12.8 3.2 19.2 0 0 0 3.2-3.2 3.2-9.6 3.2-22.4 6.4-35.2 6.4-9.6 0-16 0-25.6 0s-16 0-25.6-3.2-32-9.6-48-22.4c-6.4-6.4-12.8-12.8-16-22.4s-6.4-22.4-3.2-32c3.2-12.8 6.4-25.6 16-35.2 12.8-12.8 25.6-19.2 41.6-25.6 16-3.2 35.2-6.4 51.2-6.4 12.8 0 25.6 3.2 41.6 6.4 0 6.4 0 16-3.2 22.4-6.4 0-12.8-3.2-19.2-3.2-16 0-35.2 0-51.2 3.2-12.8 3.2-25.6 9.6-28.8 22.4-3.2 9.6-3.2 22.4-3.2 32 6.4 12.8 12.8 22.4 19.2 25.6zM768 160c-12.8 0-28.8 0-41.6 0 0-9.6 0-19.2 0-25.6 12.8 0 28.8 0 41.6 0 0 6.4 0 16 0 25.6zM726.4 6.4c12.8 0 28.8 0 41.6 0 0 35.2 0 70.4 0 105.6-12.8 0-28.8 0-41.6 0 0-35.2 0-70.4 0-105.6zM448 256c16-19.2 25.6-44.8 41.6-67.2 0 0-3.2 0-3.2 0-12.8 0-25.6 0-38.4 0-3.2 0-3.2 0-3.2 3.2-6.4 16-16 28.8-22.4 44.8-3.2 6.4-9.6 9.6-16 9.6s-12.8 0-19.2 0c0-19.2 0-38.4 0-57.6-12.8 0-28.8 0-41.6 0 0 48 0 96 0 144 16 0 35.2 0 51.2 0 9.6 0 19.2 0 28.8 0 16 0 32-3.2 44.8-9.6 9.6-6.4 16-12.8 16-25.6 0-9.6 0-16-6.4-22.4-12.8-16-19.2-19.2-32-19.2zM432 297.6c-3.2 3.2-9.6 6.4-16 6.4-9.6 0-22.4 0-35.2 0 0-12.8 0-25.6 0-38.4 9.6 0 16 0 25.6 0 6.4 0 16 3.2 22.4 6.4 9.6 6.4 9.6 19.2 3.2 25.6zM480 691.2c-16-3.2-32-9.6-48-16-19.2-9.6-38.4-25.6-51.2-41.6-9.6-9.6-16-22.4-19.2-35.2-3.2-9.6-6.4-19.2-6.4-32 0-9.6 0-22.4 0-32s6.4-22.4 9.6-32c6.4-12.8 16-25.6 25.6-35.2 9.6-6.4 19.2-12.8 28.8-19.2 16-9.6 32-16 51.2-22.4 9.6-3.2 19.2-6.4 28.8-6.4 6.4 0 12.8 0 19.2-3.2 0 92.8 0 188.8 0 281.6-3.2 0-3.2 0-6.4 0-12.8-6.4-22.4-6.4-32-6.4zM144 185.6c-25.6 0-51.2 0-76.8 0 0 48 0 96 0 144 25.6 0 51.2 0 76.8 0 22.4 0 41.6-3.2 60.8-12.8 16-9.6 28.8-19.2 35.2-38.4s3.2-38.4-6.4-54.4c-9.6-12.8-22.4-22.4-35.2-25.6-22.4-9.6-38.4-12.8-54.4-12.8zM121.6 208c9.6 0 19.2 0 25.6 0 12.8 0 22.4 6.4 32 12.8 19.2 16 19.2 48 3.2 67.2-9.6 9.6-19.2 12.8-32 16-6.4 0-12.8 0-19.2 3.2-6.4 0-12.8 0-19.2 0 0-32 0-64 0-99.2 0 0 3.2 0 9.6 0zM915.2 25.6c-6.4 3.2-9.6 6.4-6.4 12.8 0 6.4 0 16 0 22.4 0 9.6 0 16 0 25.6 12.8 0 22.4 0 35.2 0 0 6.4 0 16 0 22.4-12.8 0-22.4 0-35.2 0 0 9.6 0 19.2 0 25.6-16 0-28.8 0-41.6 0 0-9.6 0-19.2 0-28.8-9.6 0-22.4 0-32 0 0-6.4 0-16 0-22.4 9.6 0 22.4 0 32 0 0-3.2 0-3.2 0-6.4 0-16 0-35.2 0-51.2 0-6.4 3.2-12.8 6.4-19.2 6.4-6.4 16-9.6 25.6-12.8 3.2 0 6.4 0 9.6-3.2 6.4 0 9.6 0 16 0 3.2 0 9.6 0 12.8 3.2 3.2 0 6.4 0 6.4 3.2 0 6.4 0 12.8 0 22.4-9.6 3.2-19.2 3.2-28.8 6.4zM230.4 105.6c9.6-16 9.6-32 3.2-51.2s-22.4-32-41.6-41.6c-12.8-6.4-25.6-9.6-41.6-9.6-28.8 0-57.6 0-86.4 0 0 48 0 96 0 144 22.4 0 44.8 0 67.2 0 16 0 32 0 44.8-6.4 25.6-3.2 44.8-12.8 54.4-35.2zM192 92.8c-3.2 16-16 25.6-28.8 28.8-19.2 9.6-35.2 3.2-54.4 6.4 0-32 0-67.2 0-99.2 9.6 0 16 0 22.4 0 9.6 0 22.4 3.2 32 6.4 25.6 12.8 35.2 35.2 28.8 57.6zM304 329.6c-16 0-28.8 0-41.6 0 0-48 0-96 0-140.8 16 0 28.8 0 41.6 0 0 44.8 0 92.8 0 140.8zM806.4 304c19.2 0 38.4 0 57.6 0 0-41.6 0-80 0-118.4 12.8 0 25.6 0 41.6 0 0 38.4 0 80 0 118.4 19.2 0 38.4 0 57.6 0 0 6.4 0 16 0 22.4-51.2 0-102.4 0-156.8 0 0-6.4 0-12.8 0-22.4zM435.2 51.2c-35.2 0-70.4 0-105.6 0 0-12.8 12.8-22.4 22.4-22.4 19.2-3.2 38.4-3.2 57.6 3.2 6.4 0 9.6 3.2 16 6.4 0-6.4 0-16 0-22.4 0 0 0-3.2-3.2-3.2-9.6-3.2-19.2-6.4-28.8-6.4-12.8 0-22.4 0-35.2 0-16 0-32 3.2-48 12.8-12.8 6.4-19.2 19.2-22.4 32-3.2 16 0 32 12.8 44.8 16 16 35.2 19.2 54.4 22.4 12.8 0 25.6 0 35.2-3.2 16-3.2 28.8-12.8 38.4-28.8 3.2-9.6 6.4-22.4 6.4-35.2zM393.6 73.6c-3.2 12.8-6.4 16-12.8 19.2-12.8 6.4-28.8 6.4-41.6-3.2-6.4-3.2-9.6-12.8-9.6-19.2 22.4 3.2 41.6 3.2 64 3.2z" />
<glyph unicode="&#xe676;" d="M316.8 153.6l19.2 112h-246.4l22.4 118.4 326.4 358.4h128l-64-358.4h60.8l-19.2-118.4h-60.8l-19.2-112h-147.2zM233.6 387.2h124.8l28.8 166.4-153.6-166.4zM726.4 156.8c-28.8 0-51.2 6.4-73.6 16-19.2 9.6-38.4 22.4-51.2 41.6s-22.4 41.6-25.6 67.2c-3.2 25.6-3.2 54.4 3.2 86.4 9.6 51.2 25.6 92.8 51.2 124.8 25.6 35.2 54.4 57.6 83.2 67.2 28.8 12.8 57.6 16 86.4 16 35.2 0 67.2-6.4 86.4-22.4 22.4-12.8 38.4-35.2 51.2-60.8l-83.2-57.6c-6.4 16-16 25.6-25.6 35.2s-22.4 12.8-41.6 12.8c-22.4 0-44.8-9.6-64-28.8s-32-51.2-38.4-92.8c-3.2-19.2-3.2-38.4-3.2-51.2 3.2-16 6.4-28.8 9.6-38.4 6.4-9.6 12.8-19.2 22.4-22.4 9.6-6.4 19.2-6.4 32-6.4 16 0 32 0 44.8 3.2l9.6 57.6h-54.4l12.8 80h150.4l-35.2-204.8c-19.2-6.4-41.6-12.8-67.2-19.2-19.2-3.2-48-3.2-80-3.2z" />
<glyph unicode="&#xe677;" d="M636.8 444.8c-51.2 0-99.2 57.6-108.8 108.8-9.6 64 19.2 102.4 73.6 102.4 6.4 0 12.8 0 12.8 0 32-6.4 48 6.4 54.4 28.8 9.6 25.6-3.2 48-35.2 57.6-137.6 38.4-236.8-102.4-198.4-220.8l-179.2 256c-16 22.4-44.8 25.6-64 12.8-22.4-16-22.4-44.8-6.4-67.2l185.6-268.8c-3.2-3.2-16 0-19.2 3.2l-163.2 240-9.6-6.4c-22.4-12.8-19.2-44.8-6.4-64 0 0 73.6-108.8 144-208-3.2-3.2-16 0-19.2 3.2l-134.4 195.2-9.6-6.4c-22.4-16-25.6-44.8-12.8-64 0 0 172.8-249.6 217.6-313.6 80-115.2 236.8-198.4 393.6-92.8 156.8 108.8 163.2 310.4 80 419.2-28.8 38.4-76.8 76.8-108.8 102.4-19.2 16-48 16-64-3.2-28.8-32 3.2-70.4 28.8-92.8 48-41.6 41.6-121.6-51.2-121.6z" />
<glyph unicode="&#xe678;" d="M374.4 51.2c-48 108.8-22.4 172.8 16 233.6 41.6 64 51.2 128 51.2 128s32-44.8 19.2-115.2c57.6 70.4 67.2 179.2 60.8 220.8 131.2-99.2 185.6-310.4 112-467.2 400 243.2 99.2 604.8 48 646.4 16-41.6 19.2-108.8-16-144-60.8 243.2-204.8 291.2-204.8 291.2 16-124.8-64-262.4-140.8-364.8-3.2 51.2-6.4 83.2-28.8 131.2-6.4-89.6-70.4-163.2-86.4-256-28.8-118.4 12.8-208 169.6-304z" />
<glyph unicode="&#xe679;" d="M320 192h-64c-19.2 0-32 16-32 32v512c0 19.2 12.8 32 32 32h64c19.2 0 32-12.8 32-32v-512c0-16-12.8-32-32-32zM768 192h-64c-16 0-32 16-32 32v512c0 19.2 16 32 32 32h64c16 0 32-12.8 32-32v-512c0-16-16-32-32-32zM864 704h-32v-448h32c16 0 32 16 32 32v384c0 16-16 32-32 32zM928 544v0-128c16 0 32 16 32 32v64c0 16-16 32-32 32zM160 256h32v448h-32c-16 0-32-16-32-32v-384c0-16 16-32 32-32zM96 416v0 128c-16 0-32-16-32-32v-64c0-16 16-32 32-32zM384 544h256v-128h-256v128z" />
<glyph unicode="&#xe67a;" d="M320 864h384v-288h-384v288zM768 640v-128h-512v128h-96v-352h96v128h512v-128h96v352zM320 64h384v288h-384v-288zM384 288h256v-32h-256v32zM384 224h256v-32h-256v32zM384 160h256v-32h-256v32z" />
<glyph unicode="&#xe67b;" d="M835.2 252.8c-67.2 0-105.6-38.4-105.6-102.4s38.4-102.4 105.6-102.4c67.2 0 108.8 35.2 108.8 102.4 0 64-41.6 102.4-108.8 102.4zM508.8 515.2l-124.8 38.4c-32 9.6-41.6 19.2-41.6 35.2 0 25.6 22.4 41.6 67.2 41.6 64 0 150.4-28.8 211.2-64l54.4 201.6c-64 28.8-150.4 64-252.8 64-208 0-329.6-108.8-329.6-256 0-112 54.4-172.8 182.4-211.2l140.8-38.4c32-9.6 51.2-22.4 51.2-41.6 0-25.6-22.4-48-70.4-48-73.6 0-169.6 35.2-233.6 80l-57.6-211.2c51.2-28.8 169.6-67.2 284.8-67.2 172.8 0 281.6 76.8 316.8 188.8 0 0 22.4 64-3.2 147.2-25.6 60.8-86.4 105.6-195.2 140.8z" />
<glyph unicode="&#xe67c;" d="M649.6 192l-140.8 176-208-272h422.4l-73.6 96zM64 768v-576h230.4l73.6 96h-208v384h704v-384h-208l73.6-96h230.4v576z" />
</font>
</defs>
</svg>
