<?xml version="1.0" encoding="UTF-8" standalone="no"?>
<svg width="45px" height="45px" viewBox="0 0 45 45" version="1.1" xmlns="http://www.w3.org/2000/svg" xmlns:xlink="http://www.w3.org/1999/xlink">
    <!-- Generator: Sketch 39.1 (31720) - http://www.bohemiancoding.com/sketch -->
    <title>Page 1</title>
    <desc>Created with Sketch.</desc>
    <defs>
        <path d="M0,22.92 C0,26.068 0.648,29.108 1.928,31.955 C2.088,32.31 2.438,32.523 2.805,32.523 C2.935,32.523 3.07,32.495 3.198,32.437 C3.683,32.22 3.898,31.653 3.68,31.17 C2.513,28.57 1.92,25.795 1.92,22.92 C1.92,11.805 10.965,2.76 22.08,2.76 C33.195,2.76 42.24,11.805 42.24,22.92 C42.24,25.792 41.648,28.567 40.483,31.168 C40.265,31.653 40.483,32.22 40.965,32.435 C41.451,32.652 42.018,32.437 42.235,31.952 C43.512,29.105 44.16,26.068 44.16,22.92 C44.16,10.745 34.255,0.84 22.08,0.84 C9.906,0.84 0,10.745 0,22.92 L0,22.92 Z M12.48,20.52 C12.48,23.505 13.302,26.578 14.88,28.931 C9.906,30.568 5.76,33.698 5.76,37.32 C5.76,37.563 5.853,37.797 6.018,37.975 C10.245,42.505 15.95,45 22.08,45 C28.21,45 33.915,42.505 38.143,37.975 C38.307,37.797 38.4,37.563 38.4,37.32 C38.4,33.698 34.255,30.568 29.28,28.931 C30.857,26.578 31.68,23.505 31.68,20.52 C31.68,14.4 27.642,9.96 22.08,9.96 C16.518,9.96 12.48,14.4 12.48,20.52 L12.48,20.52 Z M14.4,20.52 C14.4,16.227 17.037,11.88 22.08,11.88 C27.122,11.88 29.76,16.227 29.76,20.52 C29.76,24.905 27.377,31.08 22.08,31.08 C16.782,31.08 14.4,24.905 14.4,20.52 L14.4,20.52 Z M27.97,30.53 C32.33,31.793 36.145,34.252 36.46,36.96 C32.63,40.91 27.54,43.08 22.08,43.08 C16.62,43.08 11.53,40.91 7.7,36.96 C8.015,34.252 11.83,31.79 16.19,30.53 C17.713,32.046 19.68,33.002 22.08,33.002 C24.477,33.002 26.448,32.046 27.97,30.53 L27.97,30.53 Z" id="path-1"></path>
    </defs>
    <g id="Page-1" stroke="none" stroke-width="1" fill="none" fill-rule="evenodd">
        <g>
            <mask id="mask-2" fill="white">
                <use xlink:href="#path-1"></use>
            </mask>
            <g id="Clip-2"></g>
            <polygon id="Fill-1" fill="#00BDAC" mask="url(#mask-2)" points="-5 50 49.16 50 49.16 -4.16 -5 -4.16"></polygon>
        </g>
    </g>
</svg>